<svg width="207" height="60" viewBox="0 0 207 60" fill="none" xmlns="http://www.w3.org/2000/svg">
<path d="M2.19048 0H0V60H2.19048V0Z" fill="black"/>
<path d="M4.38088 0H3.28564V60H4.38088V0Z" fill="black"/>
<path d="M9.85725 0H6.57153V60H9.85725V0Z" fill="black"/>
<path d="M13.1426 0H12.0474V60H13.1426V0Z" fill="black"/>
<path d="M16.4285 0H14.238V60H16.4285V0Z" fill="black"/>
<path d="M21.9047 0H18.619V60H21.9047V0Z" fill="black"/>
<path d="M25.1905 0H24.0952V60H25.1905V0Z" fill="black"/>
<path d="M29.5713 0H28.4761V60H29.5713V0Z" fill="black"/>
<path d="M32.8572 0H30.6667V60H32.8572V0Z" fill="black"/>
<path d="M39.4287 0H36.1429V60H39.4287V0Z" fill="black"/>
<path d="M43.8093 0H42.7141V60H43.8093V0Z" fill="black"/>
<path d="M47.0954 0H44.9049V60H47.0954V0Z" fill="black"/>
<path d="M50.3812 0H48.1907V60H50.3812V0Z" fill="black"/>
<path d="M55.8572 0H54.762V60H55.8572V0Z" fill="black"/>
<path d="M58.0476 0H56.9524V60H58.0476V0Z" fill="black"/>
<path d="M62.4286 0H60.2382V60H62.4286V0Z" fill="black"/>
<path d="M67.9048 0H63.5238V60H67.9048V0Z" fill="black"/>
<path d="M71.1906 0H69.0001V60H71.1906V0Z" fill="black"/>
<path d="M73.3812 0H72.286V60H73.3812V0Z" fill="black"/>
<path d="M76.6664 0H74.476V60H76.6664V0Z" fill="black"/>
<path d="M82.1426 0H78.8569V60H82.1426V0Z" fill="black"/>
<path d="M85.4286 0H84.3334V60H85.4286V0Z" fill="black"/>
<path d="M89.8093 0H88.7141V60H89.8093V0Z" fill="black"/>
<path d="M93.0953 0H90.9048V60H93.0953V0Z" fill="black"/>
<path d="M99.6667 0H96.381V60H99.6667V0Z" fill="black"/>
<path d="M104.048 0H102.952V60H104.048V0Z" fill="black"/>
<path d="M107.333 0H105.143V60H107.333V0Z" fill="black"/>
<path d="M110.619 0H108.429V60H110.619V0Z" fill="black"/>
<path d="M116.095 0H115V60H116.095V0Z" fill="black"/>
<path d="M118.286 0H117.19V60H118.286V0Z" fill="black"/>
<path d="M122.667 0H120.476V60H122.667V0Z" fill="black"/>
<path d="M128.143 0H123.762V60H128.143V0Z" fill="black"/>
<path d="M131.429 0H129.238V60H131.429V0Z" fill="black"/>
<path d="M133.619 0H132.524V60H133.619V0Z" fill="black"/>
<path d="M136.905 0H134.714V60H136.905V0Z" fill="black"/>
<path d="M142.381 0H139.095V60H142.381V0Z" fill="black"/>
<path d="M145.667 0H144.571V60H145.667V0Z" fill="black"/>
<path d="M150.047 0H148.952V60H150.047V0Z" fill="black"/>
<path d="M153.333 0H151.143V60H153.333V0Z" fill="black"/>
<path d="M159.905 0H156.619V60H159.905V0Z" fill="black"/>
<path d="M164.286 0H163.19V60H164.286V0Z" fill="black"/>
<path d="M167.571 0H165.381V60H167.571V0Z" fill="black"/>
<path d="M170.857 0H168.667V60H170.857V0Z" fill="black"/>
<path d="M176.333 0H175.238V60H176.333V0Z" fill="black"/>
<path d="M178.524 0H177.429V60H178.524V0Z" fill="black"/>
<path d="M181.809 0H180.714V60H181.809V0Z" fill="black"/>
<path d="M187.286 0H186.19V60H187.286V0Z" fill="black"/>
<path d="M190.572 0H188.381V60H190.572V0Z" fill="black"/>
<path d="M194.952 0H192.762V60H194.952V0Z" fill="black"/>
<path d="M201.524 0H198.238V60H201.524V0Z" fill="black"/>
<path d="M203.714 0H202.619V60H203.714V0Z" fill="black"/>
<path d="M207 0H204.809V60H207V0Z" fill="black"/>
</svg>
