<svg width="267" height="40" viewBox="0 0 267 40" fill="none" xmlns="http://www.w3.org/2000/svg">
<path d="M2.8254 0H0V40H2.8254V0Z" fill="black"/>
<path d="M5.6508 0H4.2381V40H5.6508V0Z" fill="black"/>
<path d="M12.7143 0H8.4762V40H12.7143V0Z" fill="black"/>
<path d="M16.9524 0H15.5397V40H16.9524V0Z" fill="black"/>
<path d="M25.4285 0H22.6031V40H25.4285V0Z" fill="black"/>
<path d="M29.6667 0H28.254V40H29.6667V0Z" fill="black"/>
<path d="M32.492 0H31.0793V40H32.492V0Z" fill="black"/>
<path d="M36.7301 0H35.3174V40H36.7301V0Z" fill="black"/>
<path d="M42.3809 0H39.5555V40H42.3809V0Z" fill="black"/>
<path d="M49.4444 0H46.619V40H49.4444V0Z" fill="black"/>
<path d="M55.0952 0H52.2698V40H55.0952V0Z" fill="black"/>
<path d="M59.3333 0H56.5079V40H59.3333V0Z" fill="black"/>
<path d="M64.9841 0H62.1588V40H64.9841V0Z" fill="black"/>
<path d="M69.2222 0H66.3969V40H69.2222V0Z" fill="black"/>
<path d="M74.873 0H72.0476V40H74.873V0Z" fill="black"/>
<path d="M80.5238 0H77.6984V40H80.5238V0Z" fill="black"/>
<path d="M84.7619 0H83.3492V40H84.7619V0Z" fill="black"/>
<path d="M90.4127 0H89V40H90.4127V0Z" fill="black"/>
<path d="M96.0635 0H93.2381V40H96.0635V0Z" fill="black"/>
<path d="M100.302 0H98.8889V40H100.302V0Z" fill="black"/>
<path d="M105.952 0H104.54V40H105.952V0Z" fill="black"/>
<path d="M113.016 0H108.778V40H113.016V0Z" fill="black"/>
<path d="M118.667 0H115.841V40H118.667V0Z" fill="black"/>
<path d="M122.905 0H121.492V40H122.905V0Z" fill="black"/>
<path d="M125.73 0H124.317V40H125.73V0Z" fill="black"/>
<path d="M129.968 0H127.143V40H129.968V0Z" fill="black"/>
<path d="M135.619 0H131.381V40H135.619V0Z" fill="black"/>
<path d="M142.683 0H139.857V40H142.683V0Z" fill="black"/>
<path d="M148.333 0H144.095V40H148.333V0Z" fill="black"/>
<path d="M152.571 0H151.159V40H152.571V0Z" fill="black"/>
<path d="M156.81 0H155.397V40H156.81V0Z" fill="black"/>
<path d="M163.873 0H162.46V40H163.873V0Z" fill="black"/>
<path d="M168.111 0H165.286V40H168.111V0Z" fill="black"/>
<path d="M173.762 0H170.937V40H173.762V0Z" fill="black"/>
<path d="M178 0H176.587V40H178V0Z" fill="black"/>
<path d="M180.825 0H179.413V40H180.825V0Z" fill="black"/>
<path d="M192.127 0H186.476V40H192.127V0Z" fill="black"/>
<path d="M197.778 0H196.365V40H197.778V0Z" fill="black"/>
<path d="M200.603 0H199.19V40H200.603V0Z" fill="black"/>
<path d="M204.841 0H202.016V40H204.841V0Z" fill="black"/>
<path d="M210.492 0H209.079V40H210.492V0Z" fill="black"/>
<path d="M214.73 0H213.317V40H214.73V0Z" fill="black"/>
<path d="M218.968 0H217.556V40H218.968V0Z" fill="black"/>
<path d="M226.032 0H223.206V40H226.032V0Z" fill="black"/>
<path d="M230.27 0H228.857V40H230.27V0Z" fill="black"/>
<path d="M237.333 0H233.095V40H237.333V0Z" fill="black"/>
<path d="M242.984 0H240.159V40H242.984V0Z" fill="black"/>
<path d="M247.222 0H245.81V40H247.222V0Z" fill="black"/>
<path d="M251.46 0H248.635V40H251.46V0Z" fill="black"/>
<path d="M259.937 0H255.698V40H259.937V0Z" fill="black"/>
<path d="M262.762 0H261.349V40H262.762V0Z" fill="black"/>
<path d="M267 0H264.175V40H267V0Z" fill="black"/>
</svg>
