<svg width="375" height="64" viewBox="0 0 375 64" fill="none" xmlns="http://www.w3.org/2000/svg">
<path d="M3.62708 0H1.59534V64H3.62708V0Z" fill="black"/>
<path d="M13.7862 0H7.69092V64H13.7862V0Z" fill="black"/>
<path d="M19.8807 0H17.849V64H19.8807V0Z" fill="black"/>
<path d="M25.9763 0H21.9128V64H25.9763V0Z" fill="black"/>
<path d="M36.1352 0H30.0399V64H36.1352V0Z" fill="black"/>
<path d="M42.2304 0H40.1986V64H42.2304V0Z" fill="black"/>
<path d="M50.3572 0H48.3254V64H50.3572V0Z" fill="black"/>
<path d="M56.4528 0H52.3893V64H56.4528V0Z" fill="black"/>
<path d="M68.6432 0H62.548V64H68.6432V0Z" fill="black"/>
<path d="M76.7698 0H74.738V64H76.7698V0Z" fill="black"/>
<path d="M82.8656 0H78.8021V64H82.8656V0Z" fill="black"/>
<path d="M88.961 0H84.8975V64H88.961V0Z" fill="black"/>
<path d="M99.1194 0H97.0876V64H99.1194V0Z" fill="black"/>
<path d="M103.183 0H101.151V64H103.183V0Z" fill="black"/>
<path d="M111.31 0H107.246V64H111.31V0Z" fill="black"/>
<path d="M121.469 0H113.342V64H121.469V0Z" fill="black"/>
<path d="M127.564 0H123.5V64H127.564V0Z" fill="black"/>
<path d="M131.628 0H129.596V64H131.628V0Z" fill="black"/>
<path d="M137.722 0H133.659V64H137.722V0Z" fill="black"/>
<path d="M147.881 0H141.786V64H147.881V0Z" fill="black"/>
<path d="M153.977 0H151.945V64H153.977V0Z" fill="black"/>
<path d="M162.103 0H160.071V64H162.103V0Z" fill="black"/>
<path d="M168.199 0H164.135V64H168.199V0Z" fill="black"/>
<path d="M180.389 0H174.294V64H180.389V0Z" fill="black"/>
<path d="M188.516 0H186.484V64H188.516V0Z" fill="black"/>
<path d="M194.611 0H190.548V64H194.611V0Z" fill="black"/>
<path d="M200.707 0H196.643V64H200.707V0Z" fill="black"/>
<path d="M210.865 0H208.834V64H210.865V0Z" fill="black"/>
<path d="M214.929 0H212.897V64H214.929V0Z" fill="black"/>
<path d="M223.056 0H218.992V64H223.056V0Z" fill="black"/>
<path d="M233.214 0H225.087V64H233.214V0Z" fill="black"/>
<path d="M239.31 0H235.246V64H239.31V0Z" fill="black"/>
<path d="M243.373 0H241.342V64H243.373V0Z" fill="black"/>
<path d="M249.468 0H245.405V64H249.468V0Z" fill="black"/>
<path d="M259.627 0H253.532V64H259.627V0Z" fill="black"/>
<path d="M265.722 0H263.691V64H265.722V0Z" fill="black"/>
<path d="M273.849 0H271.817V64H273.849V0Z" fill="black"/>
<path d="M279.944 0H275.881V64H279.944V0Z" fill="black"/>
<path d="M292.136 0H286.04V64H292.136V0Z" fill="black"/>
<path d="M300.262 0H298.23V64H300.262V0Z" fill="black"/>
<path d="M306.357 0H302.294V64H306.357V0Z" fill="black"/>
<path d="M312.453 0H308.389V64H312.453V0Z" fill="black"/>
<path d="M322.611 0H320.58V64H322.611V0Z" fill="black"/>
<path d="M326.675 0H324.643V64H326.675V0Z" fill="black"/>
<path d="M332.77 0H330.738V64H332.77V0Z" fill="black"/>
<path d="M342.929 0H340.897V64H342.929V0Z" fill="black"/>
<path d="M349.024 0H344.961V64H349.024V0Z" fill="black"/>
<path d="M357.151 0H353.088V64H357.151V0Z" fill="black"/>
<path d="M369.342 0H363.247V64H369.342V0Z" fill="black"/>
<path d="M373.405 0H371.373V64H373.405V0Z" fill="black"/>
</svg>
