<svg width="24" height="24" viewBox="0 0 24 24" fill="none" xmlns="http://www.w3.org/2000/svg">
<mask id="mask0" mask-type="alpha" maskUnits="userSpaceOnUse" x="4" y="4" width="16" height="17">
<path fill-rule="evenodd" clip-rule="evenodd" d="M6.4 7.37938C6.84183 7.37938 7.2 7.02121 7.2 6.57938C7.2 6.13755 6.84183 5.77938 6.4 5.77938C5.95817 5.77938 5.6 6.13755 5.6 6.57938C5.6 7.02121 5.95817 7.37938 6.4 7.37938ZM6.4 8.97938C7.44497 8.97938 8.33397 8.31154 8.66344 7.37938H19.52C19.7851 7.37938 20 7.16448 20 6.89938V6.25938C20 5.99429 19.7851 5.77938 19.52 5.77938H8.66344C8.33397 4.84723 7.44497 4.17938 6.4 4.17938C5.07452 4.17938 4 5.2539 4 6.57938C4 7.90487 5.07452 8.97938 6.4 8.97938ZM15.3366 12.9794C15.666 13.9115 16.555 14.5794 17.6 14.5794C18.9255 14.5794 20 13.5049 20 12.1794C20 10.8539 18.9255 9.77938 17.6 9.77938C16.555 9.77938 15.666 10.4472 15.3366 11.3794H4.48C4.2149 11.3794 4 11.5943 4 11.8594V12.4994C4 12.7645 4.2149 12.9794 4.48 12.9794H15.3366ZM9.73656 18.5794H4.48C4.2149 18.5794 4 18.3645 4 18.0994V17.4594C4 17.1943 4.2149 16.9794 4.48 16.9794H9.73656C10.066 16.0472 10.955 15.3794 12 15.3794C13.045 15.3794 13.934 16.0472 14.2634 16.9794H19.52C19.7851 16.9794 20 17.1943 20 17.4594V18.0994C20 18.3645 19.7851 18.5794 19.52 18.5794H14.2634C13.934 19.5115 13.045 20.1794 12 20.1794C10.955 20.1794 10.066 19.5115 9.73656 18.5794ZM12.8 17.7794C12.8 18.2212 12.4418 18.5794 12 18.5794C11.5582 18.5794 11.2 18.2212 11.2 17.7794C11.2 17.3376 11.5582 16.9794 12 16.9794C12.4418 16.9794 12.8 17.3376 12.8 17.7794ZM18.4 12.1794C18.4 12.6212 18.0418 12.9794 17.6 12.9794C17.1582 12.9794 16.8 12.6212 16.8 12.1794C16.8 11.7376 17.1582 11.3794 17.6 11.3794C18.0418 11.3794 18.4 11.7376 18.4 12.1794Z" fill="#333333"/>
</mask>
<g mask="url(#mask0)">
<rect y="0.162598" width="23.8381" height="23.8381" transform="rotate(-0.390403 0 0.162598)" fill="#333333"/>
</g>
</svg>
