<svg width="120" height="120" viewBox="0 0 120 120" fill="none" xmlns="http://www.w3.org/2000/svg">
<path d="M50.0478 73.8786C50.544 74.3748 50.8164 75.0351 50.8164 75.7328C50.8164 76.4342 50.544 77.0908 50.0478 77.587C49.5516 78.0832 48.895 78.3556 48.1936 78.3556C47.4922 78.3556 46.8356 78.0832 46.3394 77.587L43.1832 74.4308L40.0232 77.587C39.5307 78.0832 38.8703 78.3556 38.169 78.3556C37.4713 78.3556 36.8109 78.0832 36.3185 77.587C35.8223 77.0908 35.5499 76.4342 35.5499 75.7328C35.5499 75.0351 35.8223 74.3748 36.3185 73.8786L39.4747 70.7223L36.3185 67.5661C35.8223 67.0699 35.5499 66.4095 35.5499 65.7119C35.5499 65.0105 35.8223 64.3539 36.3185 63.8577C36.8109 63.3615 37.4713 63.0891 38.169 63.0891C38.8703 63.0891 39.5307 63.3615 40.0232 63.8577L43.1832 67.0139L46.3394 63.8577C46.8356 63.3615 47.4922 63.0891 48.1936 63.0891C48.895 63.0891 49.5516 63.3615 50.0478 63.8577C50.544 64.3539 50.8164 65.0105 50.8164 65.7119C50.8164 66.4095 50.544 67.0699 50.0478 67.5661L46.8916 70.7223L50.0478 73.8786Z" fill="#D3D3D3"/>
<path d="M84.3452 73.8786C84.8414 74.3748 85.1137 75.0351 85.1137 75.7328C85.1137 76.4342 84.8414 77.0908 84.3452 77.587C83.849 78.0832 83.1924 78.3556 82.491 78.3556C81.7896 78.3556 81.133 78.0832 80.6368 77.587L77.4805 74.4308L74.3205 77.587C73.8281 78.0832 73.1677 78.3556 72.4663 78.3556C71.7687 78.3556 71.1083 78.0832 70.6158 77.587C70.1196 77.0908 69.8473 76.4342 69.8473 75.7328C69.8473 75.0351 70.1196 74.3748 70.6158 73.8786L73.7721 70.7223L70.6158 67.5661C70.1196 67.0699 69.8473 66.4095 69.8473 65.7119C69.8473 65.0105 70.1196 64.3539 70.6158 63.8577C71.1083 63.3615 71.7687 63.0891 72.4663 63.0891C73.1677 63.0891 73.8281 63.3615 74.3205 63.8577L77.4805 67.0139L80.6368 63.8577C81.133 63.3615 81.7896 63.0891 82.491 63.0891C83.1924 63.0891 83.849 63.3615 84.3452 63.8577C84.8414 64.3539 85.1137 65.0105 85.1137 65.7119C85.1137 66.4095 84.8414 67.0699 84.3452 67.5661L81.1889 70.7223L84.3452 73.8786Z" fill="#D3D3D3"/>
<path d="M87.5947 87.8505C87.5947 88.5482 87.3223 89.2086 86.8299 89.7047L78.5885 97.9424C77.5663 98.9646 75.9024 98.9646 74.8801 97.9424L68.5452 91.6075L62.1618 97.9909C61.6656 98.4871 61.009 98.7594 60.3076 98.7594C59.6062 98.7594 58.9459 98.4833 58.4534 97.9909L52.1185 91.656L45.7314 98.0394C44.7128 99.0616 43.0489 99.0616 42.0229 98.0394L33.8338 89.8502C32.8116 88.828 32.8116 87.1641 33.8338 86.1418C34.3449 85.6307 35.0165 85.3733 35.688 85.3733C36.3596 85.3733 37.0311 85.6307 37.5422 86.1418L43.8771 92.4767L50.2643 86.0933C50.7567 85.5971 51.4171 85.3248 52.1185 85.3248C52.8161 85.3248 53.4765 85.5971 53.969 86.0933L60.3076 92.4282L66.691 86.0448C67.7132 85.0226 69.3772 85.0226 70.3994 86.0448L76.7343 92.3797L83.1215 85.9963C83.6139 85.5001 84.2743 85.2278 84.9757 85.2278C85.6733 85.2278 86.3337 85.5001 86.8299 85.9963C87.3223 86.4888 87.5947 87.1491 87.5947 87.8505Z" fill="#D3D3D3"/>
<path d="M89.3706 43.4203H64.3817L60.953 38.2271L64.9823 33.4181C65.7322 32.5189 65.8031 31.2617 65.1577 30.2879L61.4604 24.6805L61.7253 24.3597C63.2288 22.554 64.0571 20.267 64.0571 17.9203C64.0571 12.3614 59.5316 7.83594 53.9727 7.83594C48.4101 7.83594 43.8884 12.3614 43.8884 17.9203C43.8884 23.4792 48.4101 28.0009 53.9727 28.0009C54.8868 28.0009 55.7933 27.8778 56.6626 27.639L57.0544 27.5308L59.707 31.5489L55.6814 36.3617C54.9315 37.2571 54.8606 38.5106 55.5023 39.4881L58.099 43.4203H31.2894C26.3536 43.4203 22.3392 47.4384 22.3392 52.3705V103.05C22.3392 107.986 26.3536 112 31.2894 112H89.3706C94.3064 112 98.3208 107.986 98.3208 103.05V52.3705C98.3208 47.4384 94.3064 43.4203 89.3706 43.4203ZM53.9727 22.7592C51.3052 22.7592 49.1339 20.5878 49.1339 17.9203C49.1339 15.2528 51.3052 13.0814 53.9727 13.0814C56.6402 13.0814 58.8116 15.2528 58.8116 17.9203C58.8116 20.5878 56.6402 22.7592 53.9727 22.7592ZM93.079 103.05C93.079 105.094 91.4151 106.754 89.3706 106.754H31.2894C29.245 106.754 27.5847 105.094 27.5847 103.05V52.3705C27.5847 50.3261 29.245 48.6658 31.2894 48.6658H89.3706C91.4151 48.6658 93.079 50.3261 93.079 52.3705V103.05Z" fill="#D3D3D3"/>
<path d="M50.0478 73.8786C50.544 74.3748 50.8164 75.0351 50.8164 75.7328C50.8164 76.4342 50.544 77.0908 50.0478 77.587C49.5516 78.0832 48.895 78.3556 48.1936 78.3556C47.4922 78.3556 46.8356 78.0832 46.3394 77.587L43.1832 74.4308L40.0232 77.587C39.5307 78.0832 38.8703 78.3556 38.169 78.3556C37.4713 78.3556 36.8109 78.0832 36.3185 77.587C35.8223 77.0908 35.5499 76.4342 35.5499 75.7328C35.5499 75.0351 35.8223 74.3748 36.3185 73.8786L39.4747 70.7223L36.3185 67.5661C35.8223 67.0699 35.5499 66.4095 35.5499 65.7119C35.5499 65.0105 35.8223 64.3539 36.3185 63.8577C36.8109 63.3615 37.4713 63.0891 38.169 63.0891C38.8703 63.0891 39.5307 63.3615 40.0232 63.8577L43.1832 67.0139L46.3394 63.8577C46.8356 63.3615 47.4922 63.0891 48.1936 63.0891C48.895 63.0891 49.5516 63.3615 50.0478 63.8577C50.544 64.3539 50.8164 65.0105 50.8164 65.7119C50.8164 66.4095 50.544 67.0699 50.0478 67.5661L46.8916 70.7223L50.0478 73.8786Z" fill="#D3D3D3"/>
<path d="M84.3452 73.8786C84.8414 74.3748 85.1137 75.0351 85.1137 75.7328C85.1137 76.4342 84.8414 77.0908 84.3452 77.587C83.849 78.0832 83.1924 78.3556 82.491 78.3556C81.7896 78.3556 81.133 78.0832 80.6368 77.587L77.4805 74.4308L74.3205 77.587C73.8281 78.0832 73.1677 78.3556 72.4663 78.3556C71.7687 78.3556 71.1083 78.0832 70.6158 77.587C70.1196 77.0908 69.8473 76.4342 69.8473 75.7328C69.8473 75.0351 70.1196 74.3748 70.6158 73.8786L73.7721 70.7223L70.6158 67.5661C70.1196 67.0699 69.8473 66.4095 69.8473 65.7119C69.8473 65.0105 70.1196 64.3539 70.6158 63.8577C71.1083 63.3615 71.7687 63.0891 72.4663 63.0891C73.1677 63.0891 73.8281 63.3615 74.3205 63.8577L77.4805 67.0139L80.6368 63.8577C81.133 63.3615 81.7896 63.0891 82.491 63.0891C83.1924 63.0891 83.849 63.3615 84.3452 63.8577C84.8414 64.3539 85.1137 65.0105 85.1137 65.7119C85.1137 66.4095 84.8414 67.0699 84.3452 67.5661L81.1889 70.7223L84.3452 73.8786Z" fill="#D3D3D3"/>
<path d="M87.5947 87.8505C87.5947 88.5482 87.3223 89.2086 86.8299 89.7047L78.5885 97.9424C77.5663 98.9646 75.9024 98.9646 74.8801 97.9424L68.5452 91.6075L62.1618 97.9909C61.6656 98.4871 61.009 98.7594 60.3076 98.7594C59.6062 98.7594 58.9459 98.4833 58.4534 97.9909L52.1185 91.656L45.7314 98.0394C44.7128 99.0616 43.0489 99.0616 42.0229 98.0394L33.8338 89.8502C32.8116 88.828 32.8116 87.1641 33.8338 86.1418C34.3449 85.6307 35.0165 85.3733 35.688 85.3733C36.3596 85.3733 37.0311 85.6307 37.5422 86.1418L43.8771 92.4767L50.2643 86.0933C50.7567 85.5971 51.4171 85.3248 52.1185 85.3248C52.8161 85.3248 53.4765 85.5971 53.969 86.0933L60.3076 92.4282L66.691 86.0448C67.7132 85.0226 69.3772 85.0226 70.3994 86.0448L76.7343 92.3797L83.1215 85.9963C83.6139 85.5001 84.2743 85.2278 84.9757 85.2278C85.6733 85.2278 86.3337 85.5001 86.8299 85.9963C87.3223 86.4888 87.5947 87.1491 87.5947 87.8505Z" fill="#D3D3D3"/>
<path d="M50.0478 73.8786C50.544 74.3748 50.8164 75.0351 50.8164 75.7328C50.8164 76.4342 50.544 77.0908 50.0478 77.587C49.5516 78.0832 48.895 78.3556 48.1936 78.3556C47.4922 78.3556 46.8356 78.0832 46.3394 77.587L43.1832 74.4308L40.0232 77.587C39.5307 78.0832 38.8703 78.3556 38.169 78.3556C37.4713 78.3556 36.8109 78.0832 36.3185 77.587C35.8223 77.0908 35.5499 76.4342 35.5499 75.7328C35.5499 75.0351 35.8223 74.3748 36.3185 73.8786L39.4747 70.7223L36.3185 67.5661C35.8223 67.0699 35.5499 66.4095 35.5499 65.7119C35.5499 65.0105 35.8223 64.3539 36.3185 63.8577C36.8109 63.3615 37.4713 63.0891 38.169 63.0891C38.8703 63.0891 39.5307 63.3615 40.0232 63.8577L43.1832 67.0139L46.3394 63.8577C46.8356 63.3615 47.4922 63.0891 48.1936 63.0891C48.895 63.0891 49.5516 63.3615 50.0478 63.8577C50.544 64.3539 50.8164 65.0105 50.8164 65.7119C50.8164 66.4095 50.544 67.0699 50.0478 67.5661L46.8916 70.7223L50.0478 73.8786Z" fill="#D3D3D3"/>
<path d="M84.3452 73.8786C84.8414 74.3748 85.1137 75.0351 85.1137 75.7328C85.1137 76.4342 84.8414 77.0908 84.3452 77.587C83.849 78.0832 83.1924 78.3556 82.491 78.3556C81.7896 78.3556 81.133 78.0832 80.6368 77.587L77.4805 74.4308L74.3205 77.587C73.8281 78.0832 73.1677 78.3556 72.4663 78.3556C71.7687 78.3556 71.1083 78.0832 70.6158 77.587C70.1196 77.0908 69.8473 76.4342 69.8473 75.7328C69.8473 75.0351 70.1196 74.3748 70.6158 73.8786L73.7721 70.7223L70.6158 67.5661C70.1196 67.0699 69.8473 66.4095 69.8473 65.7119C69.8473 65.0105 70.1196 64.3539 70.6158 63.8577C71.1083 63.3615 71.7687 63.0891 72.4663 63.0891C73.1677 63.0891 73.8281 63.3615 74.3205 63.8577L77.4805 67.0139L80.6368 63.8577C81.133 63.3615 81.7896 63.0891 82.491 63.0891C83.1924 63.0891 83.849 63.3615 84.3452 63.8577C84.8414 64.3539 85.1137 65.0105 85.1137 65.7119C85.1137 66.4095 84.8414 67.0699 84.3452 67.5661L81.1889 70.7223L84.3452 73.8786Z" fill="#D3D3D3"/>
<path d="M87.5947 87.8505C87.5947 88.5482 87.3223 89.2086 86.8299 89.7047L78.5885 97.9424C77.5663 98.9646 75.9024 98.9646 74.8801 97.9424L68.5452 91.6075L62.1618 97.9909C61.6656 98.4871 61.009 98.7594 60.3076 98.7594C59.6062 98.7594 58.9459 98.4833 58.4534 97.9909L52.1185 91.656L45.7314 98.0394C44.7128 99.0616 43.0489 99.0616 42.0229 98.0394L33.8338 89.8502C32.8116 88.828 32.8116 87.1641 33.8338 86.1418C34.3449 85.6307 35.0165 85.3733 35.688 85.3733C36.3596 85.3733 37.0311 85.6307 37.5422 86.1418L43.8771 92.4767L50.2643 86.0933C50.7567 85.5971 51.4171 85.3248 52.1185 85.3248C52.8161 85.3248 53.4765 85.5971 53.969 86.0933L60.3076 92.4282L66.691 86.0448C67.7132 85.0226 69.3772 85.0226 70.3994 86.0448L76.7343 92.3797L83.1215 85.9963C83.6139 85.5001 84.2743 85.2278 84.9757 85.2278C85.6733 85.2278 86.3337 85.5001 86.8299 85.9963C87.3223 86.4888 87.5947 87.1491 87.5947 87.8505Z" fill="#D3D3D3"/>
<path d="M89.3706 43.4203H64.3817L60.953 38.2271L64.9823 33.4181C65.7322 32.5189 65.8031 31.2617 65.1577 30.2879L61.4604 24.6805L61.7253 24.3597C63.2288 22.554 64.0571 20.267 64.0571 17.9203C64.0571 12.3614 59.5316 7.83594 53.9727 7.83594C48.4101 7.83594 43.8884 12.3614 43.8884 17.9203C43.8884 23.4792 48.4101 28.0009 53.9727 28.0009C54.8868 28.0009 55.7933 27.8778 56.6626 27.639L57.0544 27.5308L59.707 31.5489L55.6814 36.3617C54.9315 37.2571 54.8606 38.5106 55.5023 39.4881L58.099 43.4203H31.2894C26.3536 43.4203 22.3392 47.4384 22.3392 52.3705V103.05C22.3392 107.986 26.3536 112 31.2894 112H89.3706C94.3064 112 98.3208 107.986 98.3208 103.05V52.3705C98.3208 47.4384 94.3064 43.4203 89.3706 43.4203ZM53.9727 22.7592C51.3052 22.7592 49.1339 20.5878 49.1339 17.9203C49.1339 15.2528 51.3052 13.0814 53.9727 13.0814C56.6402 13.0814 58.8116 15.2528 58.8116 17.9203C58.8116 20.5878 56.6402 22.7592 53.9727 22.7592ZM93.079 103.05C93.079 105.094 91.4151 106.754 89.3706 106.754H31.2894C29.245 106.754 27.5847 105.094 27.5847 103.05V52.3705C27.5847 50.3261 29.245 48.6658 31.2894 48.6658H89.3706C91.4151 48.6658 93.079 50.3261 93.079 52.3705V103.05Z" fill="#D3D3D3"/>
<path d="M50.0478 73.8786C50.544 74.3748 50.8164 75.0351 50.8164 75.7328C50.8164 76.4342 50.544 77.0908 50.0478 77.587C49.5516 78.0832 48.895 78.3556 48.1936 78.3556C47.4922 78.3556 46.8356 78.0832 46.3394 77.587L43.1832 74.4308L40.0232 77.587C39.5307 78.0832 38.8703 78.3556 38.169 78.3556C37.4713 78.3556 36.8109 78.0832 36.3185 77.587C35.8223 77.0908 35.5499 76.4342 35.5499 75.7328C35.5499 75.0351 35.8223 74.3748 36.3185 73.8786L39.4747 70.7223L36.3185 67.5661C35.8223 67.0699 35.5499 66.4095 35.5499 65.7119C35.5499 65.0105 35.8223 64.3539 36.3185 63.8577C36.8109 63.3615 37.4713 63.0891 38.169 63.0891C38.8703 63.0891 39.5307 63.3615 40.0232 63.8577L43.1832 67.0139L46.3394 63.8577C46.8356 63.3615 47.4922 63.0891 48.1936 63.0891C48.895 63.0891 49.5516 63.3615 50.0478 63.8577C50.544 64.3539 50.8164 65.0105 50.8164 65.7119C50.8164 66.4095 50.544 67.0699 50.0478 67.5661L46.8916 70.7223L50.0478 73.8786Z" fill="#D3D3D3"/>
<path d="M84.3452 73.8786C84.8414 74.3748 85.1137 75.0351 85.1137 75.7328C85.1137 76.4342 84.8414 77.0908 84.3452 77.587C83.849 78.0832 83.1924 78.3556 82.491 78.3556C81.7896 78.3556 81.133 78.0832 80.6368 77.587L77.4805 74.4308L74.3205 77.587C73.8281 78.0832 73.1677 78.3556 72.4663 78.3556C71.7687 78.3556 71.1083 78.0832 70.6158 77.587C70.1196 77.0908 69.8473 76.4342 69.8473 75.7328C69.8473 75.0351 70.1196 74.3748 70.6158 73.8786L73.7721 70.7223L70.6158 67.5661C70.1196 67.0699 69.8473 66.4095 69.8473 65.7119C69.8473 65.0105 70.1196 64.3539 70.6158 63.8577C71.1083 63.3615 71.7687 63.0891 72.4663 63.0891C73.1677 63.0891 73.8281 63.3615 74.3205 63.8577L77.4805 67.0139L80.6368 63.8577C81.133 63.3615 81.7896 63.0891 82.491 63.0891C83.1924 63.0891 83.849 63.3615 84.3452 63.8577C84.8414 64.3539 85.1137 65.0105 85.1137 65.7119C85.1137 66.4095 84.8414 67.0699 84.3452 67.5661L81.1889 70.7223L84.3452 73.8786Z" fill="#D3D3D3"/>
<path d="M87.5947 87.8505C87.5947 88.5482 87.3223 89.2086 86.8299 89.7047L78.5885 97.9424C77.5663 98.9646 75.9024 98.9646 74.8801 97.9424L68.5452 91.6075L62.1618 97.9909C61.6656 98.4871 61.009 98.7594 60.3076 98.7594C59.6062 98.7594 58.9459 98.4833 58.4534 97.9909L52.1185 91.656L45.7314 98.0394C44.7128 99.0616 43.0489 99.0616 42.0229 98.0394L33.8338 89.8502C32.8116 88.828 32.8116 87.1641 33.8338 86.1418C34.3449 85.6307 35.0165 85.3733 35.688 85.3733C36.3596 85.3733 37.0311 85.6307 37.5422 86.1418L43.8771 92.4767L50.2643 86.0933C50.7567 85.5971 51.4171 85.3248 52.1185 85.3248C52.8161 85.3248 53.4765 85.5971 53.969 86.0933L60.3076 92.4282L66.691 86.0448C67.7132 85.0226 69.3772 85.0226 70.3994 86.0448L76.7343 92.3797L83.1215 85.9963C83.6139 85.5001 84.2743 85.2278 84.9757 85.2278C85.6733 85.2278 86.3337 85.5001 86.8299 85.9963C87.3223 86.4888 87.5947 87.1491 87.5947 87.8505Z" fill="#D3D3D3"/>
<path d="M89.3706 43.4203H64.3817L60.953 38.2271L64.9823 33.4181C65.7322 32.5189 65.8031 31.2617 65.1577 30.2879L61.4604 24.6805L61.7253 24.3597C63.2288 22.554 64.0571 20.267 64.0571 17.9203C64.0571 12.3614 59.5316 7.83594 53.9727 7.83594C48.4101 7.83594 43.8884 12.3614 43.8884 17.9203C43.8884 23.4792 48.4101 28.0009 53.9727 28.0009C54.8868 28.0009 55.7933 27.8778 56.6626 27.639L57.0544 27.5308L59.707 31.5489L55.6814 36.3617C54.9315 37.2571 54.8606 38.5106 55.5023 39.4881L58.099 43.4203H31.2894C26.3536 43.4203 22.3392 47.4384 22.3392 52.3705V103.05C22.3392 107.986 26.3536 112 31.2894 112H89.3706C94.3064 112 98.3208 107.986 98.3208 103.05V52.3705C98.3208 47.4384 94.3064 43.4203 89.3706 43.4203ZM53.9727 22.7592C51.3052 22.7592 49.1339 20.5878 49.1339 17.9203C49.1339 15.2528 51.3052 13.0814 53.9727 13.0814C56.6402 13.0814 58.8116 15.2528 58.8116 17.9203C58.8116 20.5878 56.6402 22.7592 53.9727 22.7592ZM93.079 103.05C93.079 105.094 91.4151 106.754 89.3706 106.754H31.2894C29.245 106.754 27.5847 105.094 27.5847 103.05V52.3705C27.5847 50.3261 29.245 48.6658 31.2894 48.6658H89.3706C91.4151 48.6658 93.079 50.3261 93.079 52.3705V103.05Z" fill="#D3D3D3"/>
<path d="M50.0478 73.8786C50.544 74.3748 50.8164 75.0351 50.8164 75.7328C50.8164 76.4342 50.544 77.0908 50.0478 77.587C49.5516 78.0832 48.895 78.3556 48.1936 78.3556C47.4922 78.3556 46.8356 78.0832 46.3394 77.587L43.1832 74.4308L40.0232 77.587C39.5307 78.0832 38.8703 78.3556 38.169 78.3556C37.4713 78.3556 36.8109 78.0832 36.3185 77.587C35.8223 77.0908 35.5499 76.4342 35.5499 75.7328C35.5499 75.0351 35.8223 74.3748 36.3185 73.8786L39.4747 70.7223L36.3185 67.5661C35.8223 67.0699 35.5499 66.4095 35.5499 65.7119C35.5499 65.0105 35.8223 64.3539 36.3185 63.8577C36.8109 63.3615 37.4713 63.0891 38.169 63.0891C38.8703 63.0891 39.5307 63.3615 40.0232 63.8577L43.1832 67.0139L46.3394 63.8577C46.8356 63.3615 47.4922 63.0891 48.1936 63.0891C48.895 63.0891 49.5516 63.3615 50.0478 63.8577C50.544 64.3539 50.8164 65.0105 50.8164 65.7119C50.8164 66.4095 50.544 67.0699 50.0478 67.5661L46.8916 70.7223L50.0478 73.8786Z" fill="#D3D3D3"/>
<path d="M84.3452 73.8786C84.8414 74.3748 85.1137 75.0351 85.1137 75.7328C85.1137 76.4342 84.8414 77.0908 84.3452 77.587C83.849 78.0832 83.1924 78.3556 82.491 78.3556C81.7896 78.3556 81.133 78.0832 80.6368 77.587L77.4805 74.4308L74.3205 77.587C73.8281 78.0832 73.1677 78.3556 72.4663 78.3556C71.7687 78.3556 71.1083 78.0832 70.6158 77.587C70.1196 77.0908 69.8473 76.4342 69.8473 75.7328C69.8473 75.0351 70.1196 74.3748 70.6158 73.8786L73.7721 70.7223L70.6158 67.5661C70.1196 67.0699 69.8473 66.4095 69.8473 65.7119C69.8473 65.0105 70.1196 64.3539 70.6158 63.8577C71.1083 63.3615 71.7687 63.0891 72.4663 63.0891C73.1677 63.0891 73.8281 63.3615 74.3205 63.8577L77.4805 67.0139L80.6368 63.8577C81.133 63.3615 81.7896 63.0891 82.491 63.0891C83.1924 63.0891 83.849 63.3615 84.3452 63.8577C84.8414 64.3539 85.1137 65.0105 85.1137 65.7119C85.1137 66.4095 84.8414 67.0699 84.3452 67.5661L81.1889 70.7223L84.3452 73.8786Z" fill="#D3D3D3"/>
<path d="M87.5947 87.8505C87.5947 88.5482 87.3223 89.2086 86.8299 89.7047L78.5885 97.9424C77.5663 98.9646 75.9024 98.9646 74.8801 97.9424L68.5452 91.6075L62.1618 97.9909C61.6656 98.4871 61.009 98.7594 60.3076 98.7594C59.6062 98.7594 58.9459 98.4833 58.4534 97.9909L52.1185 91.656L45.7314 98.0394C44.7128 99.0616 43.0489 99.0616 42.0229 98.0394L33.8338 89.8502C32.8116 88.828 32.8116 87.1641 33.8338 86.1418C34.3449 85.6307 35.0165 85.3733 35.688 85.3733C36.3596 85.3733 37.0311 85.6307 37.5422 86.1418L43.8771 92.4767L50.2643 86.0933C50.7567 85.5971 51.4171 85.3248 52.1185 85.3248C52.8161 85.3248 53.4765 85.5971 53.969 86.0933L60.3076 92.4282L66.691 86.0448C67.7132 85.0226 69.3772 85.0226 70.3994 86.0448L76.7343 92.3797L83.1215 85.9963C83.6139 85.5001 84.2743 85.2278 84.9757 85.2278C85.6733 85.2278 86.3337 85.5001 86.8299 85.9963C87.3223 86.4888 87.5947 87.1491 87.5947 87.8505Z" fill="#D3D3D3"/>
<path d="M50.0478 73.8786C50.544 74.3748 50.8164 75.0351 50.8164 75.7328C50.8164 76.4342 50.544 77.0908 50.0478 77.587C49.5516 78.0832 48.895 78.3556 48.1936 78.3556C47.4922 78.3556 46.8356 78.0832 46.3394 77.587L43.1832 74.4308L40.0232 77.587C39.5307 78.0832 38.8703 78.3556 38.169 78.3556C37.4713 78.3556 36.8109 78.0832 36.3185 77.587C35.8223 77.0908 35.5499 76.4342 35.5499 75.7328C35.5499 75.0351 35.8223 74.3748 36.3185 73.8786L39.4747 70.7223L36.3185 67.5661C35.8223 67.0699 35.5499 66.4095 35.5499 65.7119C35.5499 65.0105 35.8223 64.3539 36.3185 63.8577C36.8109 63.3615 37.4713 63.0891 38.169 63.0891C38.8703 63.0891 39.5307 63.3615 40.0232 63.8577L43.1832 67.0139L46.3394 63.8577C46.8356 63.3615 47.4922 63.0891 48.1936 63.0891C48.895 63.0891 49.5516 63.3615 50.0478 63.8577C50.544 64.3539 50.8164 65.0105 50.8164 65.7119C50.8164 66.4095 50.544 67.0699 50.0478 67.5661L46.8916 70.7223L50.0478 73.8786Z" fill="#D3D3D3"/>
<path d="M84.3452 73.8786C84.8414 74.3748 85.1137 75.0351 85.1137 75.7328C85.1137 76.4342 84.8414 77.0908 84.3452 77.587C83.849 78.0832 83.1924 78.3556 82.491 78.3556C81.7896 78.3556 81.133 78.0832 80.6368 77.587L77.4805 74.4308L74.3205 77.587C73.8281 78.0832 73.1677 78.3556 72.4663 78.3556C71.7687 78.3556 71.1083 78.0832 70.6158 77.587C70.1196 77.0908 69.8473 76.4342 69.8473 75.7328C69.8473 75.0351 70.1196 74.3748 70.6158 73.8786L73.7721 70.7223L70.6158 67.5661C70.1196 67.0699 69.8473 66.4095 69.8473 65.7119C69.8473 65.0105 70.1196 64.3539 70.6158 63.8577C71.1083 63.3615 71.7687 63.0891 72.4663 63.0891C73.1677 63.0891 73.8281 63.3615 74.3205 63.8577L77.4805 67.0139L80.6368 63.8577C81.133 63.3615 81.7896 63.0891 82.491 63.0891C83.1924 63.0891 83.849 63.3615 84.3452 63.8577C84.8414 64.3539 85.1137 65.0105 85.1137 65.7119C85.1137 66.4095 84.8414 67.0699 84.3452 67.5661L81.1889 70.7223L84.3452 73.8786Z" fill="#D3D3D3"/>
<path d="M87.5947 87.8505C87.5947 88.5482 87.3223 89.2086 86.8299 89.7047L78.5885 97.9424C77.5663 98.9646 75.9024 98.9646 74.8801 97.9424L68.5452 91.6075L62.1618 97.9909C61.6656 98.4871 61.009 98.7594 60.3076 98.7594C59.6062 98.7594 58.9459 98.4833 58.4534 97.9909L52.1185 91.656L45.7314 98.0394C44.7128 99.0616 43.0489 99.0616 42.0229 98.0394L33.8338 89.8502C32.8116 88.828 32.8116 87.1641 33.8338 86.1418C34.3449 85.6307 35.0165 85.3733 35.688 85.3733C36.3596 85.3733 37.0311 85.6307 37.5422 86.1418L43.8771 92.4767L50.2643 86.0933C50.7567 85.5971 51.4171 85.3248 52.1185 85.3248C52.8161 85.3248 53.4765 85.5971 53.969 86.0933L60.3076 92.4282L66.691 86.0448C67.7132 85.0226 69.3772 85.0226 70.3994 86.0448L76.7343 92.3797L83.1215 85.9963C83.6139 85.5001 84.2743 85.2278 84.9757 85.2278C85.6733 85.2278 86.3337 85.5001 86.8299 85.9963C87.3223 86.4888 87.5947 87.1491 87.5947 87.8505Z" fill="#D3D3D3"/>
<path d="M50.0479 73.8786C50.5441 74.3748 50.8165 75.0351 50.8165 75.7328C50.8165 76.4342 50.5441 77.0908 50.0479 77.587C49.5518 78.0832 48.8951 78.3556 48.1937 78.3556C47.4924 78.3556 46.8357 78.0832 46.3395 77.587L43.1833 74.4308L40.0233 77.587C39.5308 78.0832 38.8705 78.3556 38.1691 78.3556C37.4714 78.3556 36.8111 78.0832 36.3186 77.587C35.8224 77.0908 35.55 76.4342 35.55 75.7328C35.55 75.0351 35.8224 74.3748 36.3186 73.8786L39.4749 70.7223L36.3186 67.5661C35.8224 67.0699 35.55 66.4095 35.55 65.7119C35.55 65.0105 35.8224 64.3539 36.3186 63.8577C36.8111 63.3615 37.4714 63.0891 38.1691 63.0891C38.8705 63.0891 39.5308 63.3615 40.0233 63.8577L43.1833 67.0139L46.3395 63.8577C46.8357 63.3615 47.4924 63.0891 48.1937 63.0891C48.8951 63.0891 49.5518 63.3615 50.0479 63.8577C50.5441 64.3539 50.8165 65.0105 50.8165 65.7119C50.8165 66.4095 50.5441 67.0699 50.0479 67.5661L46.8917 70.7223L50.0479 73.8786Z" fill="#D3D3D3"/>
<path d="M50.0479 73.8786C50.5441 74.3748 50.8165 75.0351 50.8165 75.7328C50.8165 76.4342 50.5441 77.0908 50.0479 77.587C49.5518 78.0832 48.8951 78.3556 48.1937 78.3556C47.4924 78.3556 46.8357 78.0832 46.3395 77.587L43.1833 74.4308L40.0233 77.587C39.5308 78.0832 38.8705 78.3556 38.1691 78.3556C37.4714 78.3556 36.8111 78.0832 36.3186 77.587C35.8224 77.0908 35.55 76.4342 35.55 75.7328C35.55 75.0351 35.8224 74.3748 36.3186 73.8786L39.4749 70.7223L36.3186 67.5661C35.8224 67.0699 35.55 66.4095 35.55 65.7119C35.55 65.0105 35.8224 64.3539 36.3186 63.8577C36.8111 63.3615 37.4714 63.0891 38.1691 63.0891C38.8705 63.0891 39.5308 63.3615 40.0233 63.8577L43.1833 67.0139L46.3395 63.8577C46.8357 63.3615 47.4924 63.0891 48.1937 63.0891C48.8951 63.0891 49.5518 63.3615 50.0479 63.8577C50.5441 64.3539 50.8165 65.0105 50.8165 65.7119C50.8165 66.4095 50.5441 67.0699 50.0479 67.5661L46.8917 70.7223L50.0479 73.8786Z" fill="#D3D3D3"/>
<path d="M50.0479 73.8786C50.5441 74.3748 50.8165 75.0351 50.8165 75.7328C50.8165 76.4342 50.5441 77.0908 50.0479 77.587C49.5518 78.0832 48.8951 78.3556 48.1937 78.3556C47.4924 78.3556 46.8357 78.0832 46.3395 77.587L43.1833 74.4308L40.0233 77.587C39.5308 78.0832 38.8705 78.3556 38.1691 78.3556C37.4714 78.3556 36.8111 78.0832 36.3186 77.587C35.8224 77.0908 35.55 76.4342 35.55 75.7328C35.55 75.0351 35.8224 74.3748 36.3186 73.8786L39.4749 70.7223L36.3186 67.5661C35.8224 67.0699 35.55 66.4095 35.55 65.7119C35.55 65.0105 35.8224 64.3539 36.3186 63.8577C36.8111 63.3615 37.4714 63.0891 38.1691 63.0891C38.8705 63.0891 39.5308 63.3615 40.0233 63.8577L43.1833 67.0139L46.3395 63.8577C46.8357 63.3615 47.4924 63.0891 48.1937 63.0891C48.8951 63.0891 49.5518 63.3615 50.0479 63.8577C50.5441 64.3539 50.8165 65.0105 50.8165 65.7119C50.8165 66.4095 50.5441 67.0699 50.0479 67.5661L46.8917 70.7223L50.0479 73.8786Z" fill="#D3D3D3"/>
<path d="M84.3452 73.8786C84.8414 74.3748 85.1137 75.0351 85.1137 75.7328C85.1137 76.4342 84.8414 77.0908 84.3452 77.587C83.849 78.0832 83.1924 78.3556 82.491 78.3556C81.7896 78.3556 81.133 78.0832 80.6368 77.587L77.4805 74.4308L74.3205 77.587C73.8281 78.0832 73.1677 78.3556 72.4663 78.3556C71.7687 78.3556 71.1083 78.0832 70.6158 77.587C70.1196 77.0908 69.8473 76.4342 69.8473 75.7328C69.8473 75.0351 70.1196 74.3748 70.6158 73.8786L73.7721 70.7223L70.6158 67.5661C70.1196 67.0699 69.8473 66.4095 69.8473 65.7119C69.8473 65.0105 70.1196 64.3539 70.6158 63.8577C71.1083 63.3615 71.7687 63.0891 72.4663 63.0891C73.1677 63.0891 73.8281 63.3615 74.3205 63.8577L77.4805 67.0139L80.6368 63.8577C81.133 63.3615 81.7896 63.0891 82.491 63.0891C83.1924 63.0891 83.849 63.3615 84.3452 63.8577C84.8414 64.3539 85.1137 65.0105 85.1137 65.7119C85.1137 66.4095 84.8414 67.0699 84.3452 67.5661L81.1889 70.7223L84.3452 73.8786Z" fill="#D3D3D3"/>
<path d="M84.3452 73.8786C84.8414 74.3748 85.1137 75.0351 85.1137 75.7328C85.1137 76.4342 84.8414 77.0908 84.3452 77.587C83.849 78.0832 83.1924 78.3556 82.491 78.3556C81.7896 78.3556 81.133 78.0832 80.6368 77.587L77.4805 74.4308L74.3205 77.587C73.8281 78.0832 73.1677 78.3556 72.4663 78.3556C71.7687 78.3556 71.1083 78.0832 70.6158 77.587C70.1196 77.0908 69.8473 76.4342 69.8473 75.7328C69.8473 75.0351 70.1196 74.3748 70.6158 73.8786L73.7721 70.7223L70.6158 67.5661C70.1196 67.0699 69.8473 66.4095 69.8473 65.7119C69.8473 65.0105 70.1196 64.3539 70.6158 63.8577C71.1083 63.3615 71.7687 63.0891 72.4663 63.0891C73.1677 63.0891 73.8281 63.3615 74.3205 63.8577L77.4805 67.0139L80.6368 63.8577C81.133 63.3615 81.7896 63.0891 82.491 63.0891C83.1924 63.0891 83.849 63.3615 84.3452 63.8577C84.8414 64.3539 85.1137 65.0105 85.1137 65.7119C85.1137 66.4095 84.8414 67.0699 84.3452 67.5661L81.1889 70.7223L84.3452 73.8786Z" fill="#D3D3D3"/>
<path d="M84.3452 73.8786C84.8414 74.3748 85.1137 75.0351 85.1137 75.7328C85.1137 76.4342 84.8414 77.0908 84.3452 77.587C83.849 78.0832 83.1924 78.3556 82.491 78.3556C81.7896 78.3556 81.133 78.0832 80.6368 77.587L77.4805 74.4308L74.3205 77.587C73.8281 78.0832 73.1677 78.3556 72.4663 78.3556C71.7687 78.3556 71.1083 78.0832 70.6158 77.587C70.1196 77.0908 69.8473 76.4342 69.8473 75.7328C69.8473 75.0351 70.1196 74.3748 70.6158 73.8786L73.7721 70.7223L70.6158 67.5661C70.1196 67.0699 69.8473 66.4095 69.8473 65.7119C69.8473 65.0105 70.1196 64.3539 70.6158 63.8577C71.1083 63.3615 71.7687 63.0891 72.4663 63.0891C73.1677 63.0891 73.8281 63.3615 74.3205 63.8577L77.4805 67.0139L80.6368 63.8577C81.133 63.3615 81.7896 63.0891 82.491 63.0891C83.1924 63.0891 83.849 63.3615 84.3452 63.8577C84.8414 64.3539 85.1137 65.0105 85.1137 65.7119C85.1137 66.4095 84.8414 67.0699 84.3452 67.5661L81.1889 70.7223L84.3452 73.8786Z" fill="#D3D3D3"/>
<path d="M87.5947 87.8504C87.5947 88.5481 87.3223 89.2084 86.8299 89.7046L78.5885 97.9422C77.5663 98.9645 75.9024 98.9645 74.8801 97.9422L68.5452 91.6073L62.1618 97.9907C61.6656 98.4869 61.009 98.7593 60.3076 98.7593C59.6062 98.7593 58.9459 98.4832 58.4534 97.9907L52.1185 91.6558L45.7314 98.0392C44.7128 99.0615 43.0489 99.0615 42.0229 98.0392L33.8338 89.8501C32.8116 88.8279 32.8116 87.1639 33.8338 86.1417C34.3449 85.6306 35.0165 85.3732 35.688 85.3732C36.3596 85.3732 37.0311 85.6306 37.5422 86.1417L43.8771 92.4766L50.2643 86.0932C50.7567 85.597 51.4171 85.3247 52.1185 85.3247C52.8161 85.3247 53.4765 85.597 53.969 86.0932L60.3076 92.4281L66.691 86.0447C67.7132 85.0225 69.3772 85.0225 70.3994 86.0447L76.7343 92.3796L83.1215 85.9962C83.6139 85.5 84.2743 85.2277 84.9757 85.2277C85.6733 85.2277 86.3337 85.5 86.8299 85.9962C87.3223 86.4887 87.5947 87.149 87.5947 87.8504Z" fill="#D3D3D3"/>
<path d="M87.5947 87.8504C87.5947 88.5481 87.3223 89.2084 86.8299 89.7046L78.5885 97.9422C77.5663 98.9645 75.9024 98.9645 74.8801 97.9422L68.5452 91.6073L62.1618 97.9907C61.6656 98.4869 61.009 98.7593 60.3076 98.7593C59.6062 98.7593 58.9459 98.4832 58.4534 97.9907L52.1185 91.6558L45.7314 98.0392C44.7128 99.0615 43.0489 99.0615 42.0229 98.0392L33.8338 89.8501C32.8116 88.8279 32.8116 87.1639 33.8338 86.1417C34.3449 85.6306 35.0165 85.3732 35.688 85.3732C36.3596 85.3732 37.0311 85.6306 37.5422 86.1417L43.8771 92.4766L50.2643 86.0932C50.7567 85.597 51.4171 85.3247 52.1185 85.3247C52.8161 85.3247 53.4765 85.597 53.969 86.0932L60.3076 92.4281L66.691 86.0447C67.7132 85.0225 69.3772 85.0225 70.3994 86.0447L76.7343 92.3796L83.1215 85.9962C83.6139 85.5 84.2743 85.2277 84.9757 85.2277C85.6733 85.2277 86.3337 85.5 86.8299 85.9962C87.3223 86.4887 87.5947 87.149 87.5947 87.8504Z" fill="#D3D3D3"/>
<path d="M87.5947 87.8504C87.5947 88.5481 87.3223 89.2084 86.8299 89.7046L78.5885 97.9422C77.5663 98.9645 75.9024 98.9645 74.8801 97.9422L68.5452 91.6073L62.1618 97.9907C61.6656 98.4869 61.009 98.7593 60.3076 98.7593C59.6062 98.7593 58.9459 98.4832 58.4534 97.9907L52.1185 91.6558L45.7314 98.0392C44.7128 99.0615 43.0489 99.0615 42.0229 98.0392L33.8338 89.8501C32.8116 88.8279 32.8116 87.1639 33.8338 86.1417C34.3449 85.6306 35.0165 85.3732 35.688 85.3732C36.3596 85.3732 37.0311 85.6306 37.5422 86.1417L43.8771 92.4766L50.2643 86.0932C50.7567 85.597 51.4171 85.3247 52.1185 85.3247C52.8161 85.3247 53.4765 85.597 53.969 86.0932L60.3076 92.4281L66.691 86.0447C67.7132 85.0225 69.3772 85.0225 70.3994 86.0447L76.7343 92.3796L83.1215 85.9962C83.6139 85.5 84.2743 85.2277 84.9757 85.2277C85.6733 85.2277 86.3337 85.5 86.8299 85.9962C87.3223 86.4887 87.5947 87.149 87.5947 87.8504Z" fill="#D3D3D3"/>
</svg>
