<svg width="160" height="160" viewBox="0 0 160 160" fill="none" xmlns="http://www.w3.org/2000/svg">
<path d="M134.573 73.1312L123.214 53.3043C122.826 52.6271 122.223 52.1386 121.534 51.884C121.531 51.8829 121.529 51.8814 121.526 51.8805L81.4598 37.1968C80.7495 36.9364 79.9705 36.9345 79.2587 37.1906L38.4906 51.8743C38.4895 51.8747 38.4889 51.8756 38.4878 51.876C37.7898 52.1282 37.1785 52.6202 36.7865 53.3041L25.4264 73.1312C24.9597 73.9459 24.8714 74.9234 25.1847 75.8083C25.4979 76.6933 26.1813 77.3977 27.0564 77.7374L36.36 81.3489V105.993C36.36 107.352 37.2123 108.565 38.4906 109.025L78.9487 123.597C79.3614 123.789 79.8197 123.9 80.305 123.9C80.3121 123.9 80.319 123.899 80.3261 123.899C80.3344 123.899 80.3426 123.9 80.3508 123.9C80.7203 123.9 81.0898 123.836 81.4428 123.709L122.211 109.025C123.489 108.565 124.342 107.352 124.342 105.993V81.0765L132.943 77.7374C133.819 77.3977 134.502 76.6933 134.815 75.8083C135.129 74.9234 135.04 73.9459 134.573 73.1312V73.1312ZM80.3413 43.6514L111.068 54.912L80.2964 66.2319L49.0671 54.9156L80.3413 43.6514ZM41.032 58.8593L75.5812 71.3787L66.9159 86.2964L32.8812 73.0848L41.032 58.8593ZM42.8053 83.851L67.152 93.302C67.5336 93.45 67.9278 93.5209 68.3174 93.5209C69.4373 93.5209 70.5135 92.9346 71.105 91.9165L77.0821 81.6265V116.075L42.8053 103.729V83.851ZM117.896 103.729L83.5274 116.108V82.1825L88.8594 91.8537C89.6387 93.2672 91.3437 93.8859 92.8478 93.302L117.896 83.5786V103.729ZM93.143 86.2736L84.9383 71.392L118.975 58.8709L127.119 73.0848L93.143 86.2736Z" fill="#CCCCCC"/>
</svg>
