<svg width="312" height="313" viewBox="0 0 312 313" fill="none" xmlns="http://www.w3.org/2000/svg">
<g opacity="0.4">
<rect x="1.79998" y="2.03682" width="308.4" height="308.4" rx="154.2" stroke="#ED5B4C" stroke-width="3.6"/>
<path d="M273.506 208.659L274.872 205.65L276.499 205.986C275.974 206.933 275.506 207.859 275.104 208.744C274.774 209.472 274.978 210.016 275.705 210.346L290.771 217.186L290.11 218.642L274.671 211.632C273.294 211.007 272.899 209.997 273.506 208.659ZM288.601 209.844L287.407 211.01C283.902 208.28 281.476 205.683 280.127 203.22L281.762 202.492C283.132 205.012 285.418 207.449 288.601 209.844ZM284.001 221.229C279.775 221.184 276.162 220.991 273.171 220.629L272.858 218.969C276.052 219.352 279.685 219.554 283.775 219.585L284.001 221.229Z" fill="#ED5B4C"/>
<path d="M262.408 229.47L265.046 225.44C265.874 224.175 266.891 223.962 268.102 224.755L278.476 231.544L277.624 232.846L267.521 226.234C266.979 225.879 266.495 226.027 266.069 226.677L263.845 230.075C263.561 230.509 263.541 230.935 263.766 231.34C264.058 231.841 265.217 232.831 267.272 234.306L266.052 235.263C263.671 233.498 262.336 232.263 262.042 231.528C261.815 230.889 261.935 230.193 262.408 229.47ZM278.292 227.604L277.223 228.685C274.446 226.145 272.244 223.671 270.618 221.265L272.056 220.606C273.737 223.048 275.829 225.372 278.292 227.604ZM271.235 239.61C268.129 239.229 264.984 238.591 261.759 237.719L261.998 236.172C265.487 237.113 268.709 237.75 271.648 238.073L271.235 239.61ZM280.572 236.427C277.731 236.943 275.355 237.22 273.456 237.243L273.425 235.673C275.449 235.656 277.85 235.42 280.613 234.905L280.572 236.427Z" fill="#ED5B4C"/>
<path d="M257.074 237.961L256.179 237.147L257.182 236.045L262.711 241.073L258.468 245.739L253.066 240.827L254.084 239.708L254.851 240.406L257.074 237.961ZM255.905 241.365L258.446 243.676L260.67 241.231L258.129 238.92L255.905 241.365ZM270.081 246.87L267.843 249.331C268.686 249.689 269.556 249.984 270.407 250.203L269.723 251.566C268.729 251.246 267.841 250.906 267.092 250.575L267.392 249.826L264.878 252.591L263.808 251.617L269.01 245.896L270.081 246.87ZM267.181 245.372L263.17 249.782L262.147 248.852L266.158 244.441L267.181 245.372ZM264.976 243.366L260.965 247.777L259.926 246.832L263.937 242.421L264.976 243.366ZM261.929 253.266C261.169 251.758 260.578 250.257 260.142 248.809L261.606 248.388C262.423 251.117 263.678 253.718 265.401 256.19L264.189 257.073C263.646 256.258 263.149 255.456 262.684 254.683L256.696 261.267L255.578 260.249L260.068 255.311L257.352 252.841L253.428 257.156L252.341 256.167L256.265 251.853L253.549 249.382L249.334 254.016L248.232 253.014L252.446 248.379L248.835 245.095L249.852 243.976L261.086 254.193L261.929 253.266Z" fill="#ED5B4C"/>
<path d="M240.214 273.911L245.972 269.317L244.247 267.156L238.49 271.75L240.214 273.911ZM243.412 266.109L241.62 263.864C239.401 261.048 237.863 258.323 236.989 255.704L238.379 255.784C239.118 257.957 240.522 260.374 242.633 263.056L247.833 269.573L244.271 272.415C244.867 272.851 245.423 273.237 245.969 273.575L244.966 274.707C244.41 274.321 243.787 273.852 243.123 273.331L239.982 275.837L236.574 271.565L243.412 266.109ZM251.269 262.935L250.178 261.568L248.659 262.78L249.75 264.148L251.269 262.935ZM249.41 260.605L248.252 259.153L246.732 260.366L247.891 261.818L249.41 260.605ZM245.669 261.214L243.761 262.737C240.837 259.073 239.278 256.807 239.08 255.97C238.899 255.12 239.201 254.355 240.011 253.708C240.231 253.533 240.48 253.361 240.73 253.189L241.735 253.963C241.437 254.145 241.188 254.317 240.951 254.505C240.259 255.058 240.167 255.739 240.632 256.529C241.079 257.332 242.157 258.821 243.881 260.983L248.474 257.318L255.088 265.609L249.465 270.095L248.644 269.065L250.653 267.462L249.467 265.976L247.813 267.296L247.031 266.317L248.686 264.996L247.595 263.629L245.94 264.949L245.172 263.987L246.827 262.666L245.669 261.214ZM251.717 266.613L253.236 265.4L252.051 263.915L250.531 265.127L251.717 266.613ZM246.213 257.602C245.243 256.663 244.023 255.342 242.575 253.597L243.163 253.017C244.638 254.797 245.807 256.158 246.699 257.104L246.213 257.602ZM244.186 259.634C243.067 258.785 242.097 257.985 241.245 257.228L241.62 256.625C242.583 257.486 243.584 258.29 244.589 259.064L244.186 259.634ZM245.119 258.586C244.081 257.701 243.023 256.721 241.884 255.64L242.418 254.993C243.56 256.182 244.615 257.192 245.565 258.036L245.119 258.586ZM247.979 256.387L247.27 256.814C245.909 254.971 244.825 253.266 243.957 251.692L244.811 251.343C245.605 252.892 246.645 254.577 247.979 256.387ZM229.894 261.808L230.519 261.309L231.472 261.985L230.855 262.423C230.601 262.625 230.561 262.851 230.722 263.053L232.622 265.434L233.77 264.518L231.102 261.175L231.845 260.582L234.513 263.925L235.644 263.023L232.977 259.68L233.736 259.073L236.404 262.417L237.535 261.514L234.612 257.85L235.49 257.15L241.7 264.933L235.014 270.268L229.666 263.565C229.154 262.923 229.235 262.333 229.894 261.808ZM238.289 262.46L237.158 263.362L238.882 265.523L240.014 264.621L238.289 262.46ZM238.123 266.13L236.398 263.968L235.267 264.871L236.991 267.032L238.123 266.13ZM236.248 267.625L234.524 265.464L233.376 266.38L235.1 268.541L236.248 267.625Z" fill="#ED5B4C"/>
<path d="M225.3 277.563C224.887 277.799 224.453 277.823 223.987 277.618C223.55 277.42 223.172 277.064 222.861 276.52C222.389 275.695 222.214 274.825 222.336 273.908C222.48 273.029 222.9 272.241 223.57 271.584L224.096 272.503C223.705 272.951 223.472 273.457 223.368 274.015C223.331 274.558 223.436 275.046 223.693 275.496C223.747 275.415 223.875 275.292 224.063 275.185C224.382 275.002 224.708 274.965 225.062 275.061C225.416 275.157 225.67 275.384 225.853 275.703C226.057 276.059 226.105 276.405 225.998 276.74C225.921 277.083 225.675 277.348 225.3 277.563Z" fill="#ED5B4C"/>
<path d="M213.324 287.231L212.602 285.333L208.161 287.024L208.883 288.921L213.324 287.231ZM209.328 290.092L210.043 291.97L214.484 290.279L213.77 288.402L209.328 290.092ZM204.26 290.681L203.53 288.763L199.109 290.445L199.839 292.363L204.26 290.681ZM200.284 293.534L200.991 295.391L205.412 293.709L204.705 291.851L200.284 293.534ZM198.648 289.234L204.522 286.998L207.327 294.367L200.019 297.148L194.019 281.381C193.527 280.089 193.859 279.2 195.01 278.762C195.777 278.471 196.572 278.191 197.346 277.919L198.204 279.141C197.422 279.393 196.708 279.642 196.041 279.895C195.496 280.103 195.352 280.573 195.629 281.3L198.648 289.234ZM209.043 293.714L206.246 286.365L212.141 284.122L208.177 273.705L209.63 273.152L216.391 290.917L209.043 293.714Z" fill="#ED5B4C"/>
<path d="M194.866 298.47L188.799 299.741L187.611 294.076L193.679 292.804L194.866 298.47ZM189.298 295.068L189.945 298.155L193.201 297.473L192.554 294.386L189.298 295.068ZM194.152 291.27L186.753 292.821L186.46 291.426L190.54 290.571C190.561 289.617 190.6 288.748 190.656 287.964L186.809 288.771C186.035 284.762 185.92 282.424 186.448 281.784C186.862 281.234 187.913 280.771 189.625 280.412L189.964 280.341L190.658 281.652C190.378 281.689 190.12 281.721 189.888 281.769C188.751 282.03 188.063 282.328 187.799 282.649C187.464 283.05 187.532 284.536 188.005 287.107L192.191 286.23C192.065 287.735 192.014 289.07 192.02 290.261L193.86 289.875L194.152 291.27ZM183.307 301.863L181.827 302.173L181.561 300.905L177.164 301.826L176.898 300.558L181.295 299.636L180.976 298.114L176.156 299.125L176.01 298.427C175.983 297.351 176.067 296.274 176.256 295.175L177.71 295.268C177.542 295.943 177.451 296.668 177.399 297.474L180.697 296.782L180.307 294.922L177.947 295.77L177.465 294.525L180.033 293.611L179.807 292.533C179.727 292.153 179.471 291.986 179.006 292.083L175.37 292.845L175.095 291.534L179.112 290.693C180.275 290.449 180.956 290.858 181.178 291.915L181.426 293.099L183.44 292.39L183.901 293.639L181.705 294.431L182.135 296.481L185.01 295.879L184 291.059C183.242 287.444 183.225 284.203 183.953 281.358L185.354 282.146C184.749 284.524 184.775 287.387 185.429 290.715L186.727 296.909L182.456 297.804L183.307 301.863ZM181.845 289.414L180.408 289.715C179.701 286.133 179.949 283.521 181.145 281.858L182.549 282.557C181.448 283.935 181.223 286.234 181.845 289.414ZM174.494 283.715L175.403 283.525C176.629 283.268 177.353 283.668 177.575 284.725L178.691 290.053L177.317 290.34L176.254 285.267C176.192 284.971 175.991 284.858 175.653 284.929L174.871 285.093C174.512 285.168 174.344 285.424 174.365 285.839C174.399 286.317 174.516 287.087 174.729 288.102L173.342 287.907C172.988 286.216 172.893 285.132 173.058 284.656C173.215 284.248 173.7 283.926 174.494 283.715Z" fill="#ED5B4C"/>
<path d="M155.165 293.012L154.746 284.815L156.234 284.739L156.295 285.925L165.42 285.459L165.355 284.186L166.843 284.11L167.206 291.207C168.463 289.996 169.925 288.97 171.589 288.106L172.367 289.364C169.334 290.947 167.102 292.986 165.673 295.481L171.972 295.159L172.043 296.561L164.968 296.923C164.58 297.808 164.304 298.752 164.094 299.715L162.64 299.616C162.852 298.697 163.111 297.84 163.415 297.003L153.297 297.52L153.226 296.118L164.033 295.565C164.602 294.433 165.264 293.404 166.037 292.456L155.165 293.012ZM165.494 286.904L156.369 287.371L156.581 291.512L165.705 291.046L165.494 286.904ZM172.394 301.734L167.713 301.974L167.811 303.893L166.323 303.97L166.225 302.05L163.593 302.184L163.52 300.76L166.152 300.626L166.042 298.469L167.53 298.393L167.64 300.55L172.321 300.311L172.394 301.734ZM160.045 304.29L158.557 304.367L158.459 302.447L153.778 302.686L153.705 301.262L158.386 301.023L158.276 298.866L159.764 298.79L159.875 300.947L162.528 300.811L162.601 302.235L159.947 302.371L160.045 304.29Z" fill="#ED5B4C"/>
<path d="M138.323 303.152L136.755 302.983L137.12 299.59L131.129 298.945L131.288 297.463L137.28 298.108L137.638 294.779L132.119 294.185L132.281 292.682L137.8 293.276L138.167 289.861L131.832 289.179L131.992 287.698L138.327 288.379L138.872 283.311L140.44 283.48L138.323 303.152ZM149.662 300.94L143.649 300.293L143.284 303.686L141.759 303.522L142.885 293.063C143.381 288.858 144.914 285.917 147.484 284.238L148.552 285.417C147.015 286.382 145.901 287.848 145.194 289.77C147.049 289.492 149.002 289.311 151.058 289.185L151.257 290.77C149.017 290.79 146.851 290.926 144.756 291.222C144.6 291.857 144.484 292.54 144.41 293.227L144.329 293.979L149.848 294.573L149.686 296.076L144.167 295.482L143.809 298.811L149.822 299.458L149.662 300.94Z" fill="#ED5B4C"/>
<path d="M118.695 286.948L120.363 287.399L120.298 288.881C119.794 288.677 119.305 288.5 118.846 288.376C118.471 288.275 118.189 288.489 118.048 289.011L116.615 294.307L115.114 293.9L116.643 288.25C116.953 287.103 117.653 286.666 118.695 286.948ZM125.625 295.245C126.422 294.7 127.222 294.222 128.026 293.813L128.654 295.214C126.338 296.333 124.214 298.063 122.288 300.384L120.913 299.676C121.782 298.613 122.692 297.651 123.635 296.81L125.79 288.845L127.25 289.24L125.625 295.245ZM117.591 299.135L116.258 298.439C116.66 297.944 117.078 297.475 117.464 297.042L109.103 294.78L109.357 293.842C109.91 292.873 110.52 291.941 111.207 291.053L112.467 291.775C111.926 292.367 111.431 293.038 110.976 293.81L118.67 295.892C119.79 294.897 120.989 294.103 122.238 293.456L122.851 294.83C120.915 295.783 119.163 297.211 117.591 299.135ZM127.892 288.273L126.532 287.591C127.574 285.725 128.736 284.16 130.033 282.922L131.085 284.079C129.826 285.26 128.771 286.676 127.892 288.273ZM119.292 279.367L124.63 280.811C125.922 281.161 126.367 281.997 126.006 283.332L124.816 287.731L123.294 287.319L124.4 283.233C124.558 282.649 124.371 282.263 123.787 282.105L119.2 280.864C118.783 280.751 118.457 280.797 118.202 280.997C117.873 281.221 117.501 282.015 117.046 283.369L115.752 282.527C116.394 280.731 116.964 279.7 117.488 279.416C117.933 279.179 118.541 279.164 119.292 279.367ZM113.914 285.185C113.076 282.989 112.51 281.112 112.173 279.545L113.64 279.002C113.984 280.706 114.561 282.63 115.347 284.767L113.914 285.185ZM119.846 293.033L118.789 292.142C120.016 290.751 121.311 289.603 122.67 288.717L123.602 289.82C122.255 290.663 121.003 291.734 119.846 293.033ZM112.918 291.181C112.256 289.659 111.758 288.025 111.404 286.273L112.851 285.971C113.203 287.812 113.716 289.472 114.337 290.983L112.918 291.181ZM120.327 287.121C119.606 285.65 119.096 284.394 118.796 283.35L120.184 282.853C120.508 283.97 121.007 285.269 121.692 286.707L120.327 287.121Z" fill="#ED5B4C"/>
<path d="M105.031 291.116L97.3275 287.654L95.7249 291.22L94.2669 290.565L95.8695 286.999L88.1858 283.546L88.7967 282.186L95.2195 285.073C95.3073 281.347 94.2004 277.487 91.9184 273.501L93.4328 272.713C95.6253 277.109 96.5857 281.4 96.3228 285.569L96.4804 285.639L99.9336 277.956L95.7174 276.061L96.3283 274.701L100.544 276.596L102.36 272.557L103.818 273.213L102.002 277.251L106.061 279.075L105.45 280.435L101.391 278.611L97.9384 286.295L98.0763 286.357C101.332 283.012 105.293 280.838 109.96 279.833L110.174 281.516C105.873 282.235 102.224 284.029 99.1993 286.861L105.642 289.757L105.031 291.116Z" fill="#ED5B4C"/>
<path d="M74.0685 279.314C75.0857 277.76 76.0152 276.458 76.8209 275.384C79.0261 269.806 78.8657 264.332 76.346 258.991L77.9407 258.408C80.0427 263.243 80.4077 268.129 79.0177 273.053C82.6807 269.823 87.3762 268.249 93.08 268.291L93.1182 269.968C86.149 269.769 80.8739 272.229 77.3047 277.327C76.4823 278.544 75.8373 279.491 75.3878 280.177L74.0685 279.314Z" fill="#ED5B4C"/>
<path d="M62.0665 259.365C61.7149 259.045 61.5581 258.64 61.6105 258.133C61.6643 257.656 61.8867 257.187 62.3082 256.723C62.9476 256.02 63.7221 255.586 64.6317 255.42C65.5123 255.287 66.3913 255.444 67.2223 255.879L66.5102 256.662C65.9639 256.428 65.4103 256.362 64.848 256.435C64.3191 256.567 63.8875 256.817 63.5388 257.2C63.6317 257.226 63.7887 257.311 63.9485 257.456C64.2201 257.703 64.3566 258.002 64.374 258.368C64.3914 258.735 64.2533 259.047 64.0062 259.319C63.7301 259.622 63.4162 259.775 63.0646 259.776C62.7144 259.808 62.3861 259.655 62.0665 259.365Z" fill="#ED5B4C"/>
<path d="M41.5164 245.137L44.1284 248.386L42.9668 249.32L35.9565 240.6C41.8655 235.849 45.5863 232.997 47.1054 232.025C49.2375 230.644 50.975 230.771 52.3284 232.455C52.6126 232.808 53.0829 233.428 53.7395 234.313L52.8551 235.523C52.2798 234.738 51.7857 234.055 51.3526 233.516C50.5135 232.472 49.2486 232.519 47.5477 233.61C46.4564 234.32 43.3047 236.743 38.0925 240.878L40.5556 243.942L42.2727 242.561C47.5961 238.393 52.8723 237.061 58.0876 238.55L58.0074 240.277C53.0921 238.714 48.1731 239.869 43.2336 243.757L41.5164 245.137ZM58.0932 243.728L57.1989 245.029C56.7837 244.892 56.3589 244.984 55.9548 245.309L50.2478 249.896L51.8989 251.95L50.7373 252.884L49.0862 250.83L45.1974 253.956L44.1959 252.711L48.0848 249.584L45.554 246.436L46.7156 245.503L49.2464 248.651L55.2227 243.846C54.0674 243.168 52.8616 242.53 51.6053 241.932L52.4527 240.78C54.1678 241.396 56.0592 242.37 58.0932 243.728Z" fill="#ED5B4C"/>
<path d="M29.7386 233.376L29.2069 231.838C30.3909 231.559 31.5535 231.416 32.6841 231.391L26.4491 220.5C32.5789 216.99 36.4192 214.916 37.9512 214.288C39.8983 213.472 41.4392 214.034 42.5553 215.983C42.8558 216.508 43.3414 217.4 44.0122 218.658L42.9762 219.675C42.402 218.585 41.9029 217.626 41.4521 216.839C40.7546 215.62 39.6532 215.305 38.1668 215.882C37.0714 216.36 33.8604 218.099 28.5152 221.109L29.9425 223.602C33.5316 222.393 36.5961 221.834 39.128 221.952C41.869 222.175 44.79 223.191 47.8805 224.981L47.2789 226.495C44.4162 224.799 41.7283 223.799 39.2739 223.511C36.825 223.32 33.948 223.773 30.683 224.895L32.2498 227.632C36.9642 226.476 41.1735 227.004 44.8993 229.251L44.346 230.763C40.9551 228.622 37.1663 228.003 32.9795 228.907L34.4283 231.438C36.1109 231.594 37.7027 232.027 39.233 232.744L38.6502 234.247C35.7985 232.918 32.8405 232.62 29.7386 233.376Z" fill="#ED5B4C"/>
<path d="M19.4259 198.417L20.7343 197.665L24.1174 204.004C25.3633 203.391 26.4122 202.807 27.264 202.252C29.1791 200.968 30.5406 199.687 31.3811 198.374C32.1716 197.172 32.4324 196.217 32.1914 195.523C31.9638 194.986 30.5181 195.074 27.8669 195.759L28.1097 194.211C29.8649 193.843 31.227 193.718 32.2035 193.855C32.9272 193.995 33.4067 194.344 33.6344 194.882C34.0108 195.871 33.7566 197.146 32.8843 198.68C31.9091 200.368 30.3947 201.915 28.3488 203.341C27.4393 203.988 26.2847 204.658 24.8446 205.368L27.077 209.534L25.7686 210.286L23.4776 206.027C21.8356 206.814 19.9081 207.64 17.6952 208.505L17.1267 207.011C19.2867 206.189 21.1613 205.406 22.7504 204.663L19.4259 198.417ZM27.496 212.517C28.6858 212.85 29.8459 213.287 31.001 213.772L29.6637 214.812C26.3759 213.521 22.9629 212.994 19.4295 213.184L19.5608 211.585C21.2948 211.526 22.9941 211.619 24.6463 211.892L38.2931 206.698L38.8616 208.192L27.496 212.517ZM16.4306 204.757C16.9915 203.133 17.6216 201.692 18.3083 200.46L19.6816 201.093C18.969 202.196 18.311 203.625 17.6924 205.34L16.4306 204.757Z" fill="#ED5B4C"/>
<path d="M12.1816 191.536L12.5556 189.977C14.1334 190.126 15.6327 190.424 17.0867 190.821L31.8526 187.67L32.1772 189.191L19.9251 191.805C21.207 192.327 22.448 192.968 23.6649 193.702L22.1797 194.505C19.1036 192.82 15.7779 191.829 12.1816 191.536ZM16.559 188.659L14.8324 180.568L10.2907 181.537L9.9661 180.016L14.5078 179.047L13.8587 176.005L15.3374 175.69L15.9865 178.731L27.0134 176.378C28.4499 176.072 29.3124 176.594 29.5919 177.904L30.2455 180.967L28.8178 181.625C28.6693 180.619 28.5087 179.659 28.3104 178.73C28.1706 178.075 27.7182 177.818 26.9578 177.98L16.3111 180.252L18.0377 188.343L16.559 188.659ZM19.9255 185.908C21.4841 183.897 22.8869 182.295 24.1174 181.126L25.3008 182.221C23.9525 183.459 22.5029 185.049 20.952 186.992L19.9255 185.908Z" fill="#ED5B4C"/>
<path d="M10.7866 173.052L10.5528 168.479L8.58978 168.579L8.51479 167.112L10.4778 167.012L10.2749 163.042L11.6555 162.972L11.8584 166.941L13.7567 166.844L13.5792 163.371L14.9166 163.303L15.3644 172.061L14.0269 172.129L13.8317 168.311L11.9334 168.408L12.1672 172.981L10.7866 173.052ZM17.0322 171.262L16.655 163.884L18.014 163.815L18.3912 171.192L17.0322 171.262ZM20.0979 172.424L19.5818 162.329L20.9408 162.259L21.157 166.487L26.5499 166.212C27.6717 166.154 28.285 166.728 28.3468 167.937L28.4405 169.77L27.0538 170.144C27.0898 169.58 27.1043 169.017 27.0778 168.499C27.0491 167.938 26.7759 167.671 26.2798 167.696L21.232 167.954L21.457 172.355L20.0979 172.424ZM22.4097 170.684L22.583 169.421C24.2899 169.809 25.7694 170.404 27.0431 171.204L26.3476 172.408C25.1375 171.583 23.8317 171.001 22.4097 170.684ZM21.893 163.962C22.8589 163.394 23.8916 162.865 25.014 162.397L25.615 163.577C24.3859 164.073 23.2896 164.626 22.3669 165.193L21.893 163.962ZM8.2663 160.982L8.4308 159.546C9.55916 159.618 10.5819 159.739 11.5409 159.885L11.2498 154.19L12.199 154.141C14.0469 154.328 15.8777 154.602 17.6924 154.985L17.3564 156.451C15.9969 156.088 14.4681 155.799 12.7281 155.607L12.9608 160.158C14.7982 160.562 16.2981 161.134 17.4607 161.875L16.68 163.104C14.6281 161.89 11.8239 161.19 8.2663 160.982ZM14.6208 159.208L14.548 157.785C15.9933 157.711 17.3352 157.729 18.5498 157.796C21.9097 156.673 24.545 154.916 26.4343 152.527L27.6737 153.502C25.9565 155.449 23.8289 156.986 21.2479 158.113C21.4011 158.148 21.5532 158.162 21.728 158.196C24.3077 158.735 26.4558 160.139 28.2165 162.428L27.1218 163.436C25.5932 161.459 23.7549 160.19 21.5635 159.632C19.725 159.207 17.4252 159.065 14.6208 159.208Z" fill="#ED5B4C"/>
<path d="M11.1188 141.448L11.3337 139.451L22.5072 141.001L22.3639 142.332L11.1188 141.448ZM24.0033 141.835C24.0426 141.47 24.1847 141.16 24.4701 140.93C24.7318 140.719 25.0463 140.622 25.4114 140.662C25.798 140.703 26.0848 140.864 26.2956 141.126C26.5041 141.409 26.5982 141.745 26.559 142.11C26.5197 142.475 26.3584 142.762 26.0945 142.994C25.809 143.224 25.4968 143.299 25.1317 143.26C24.7666 143.221 24.4775 143.081 24.269 142.798C24.039 142.513 23.964 142.2 24.0033 141.835Z" fill="#ED5B4C"/>
<path d="M38.7539 104.133L37.3993 107.147L35.7711 106.818C36.2926 105.868 36.757 104.94 37.1554 104.054C37.4831 103.325 37.2769 102.782 36.548 102.454L21.4563 95.6721L22.1115 94.2142L37.5775 101.165C38.9566 101.784 39.356 102.793 38.7539 104.133ZM23.6543 103.006L24.8434 101.836C28.3588 104.552 30.7957 107.139 32.154 109.597L30.5215 110.331C29.1414 107.817 26.8464 105.388 23.6543 103.006ZM28.2106 91.6032C32.4367 91.6317 36.0503 91.8111 39.0425 92.1612L39.3624 93.8206C36.1663 93.4499 32.533 93.2616 28.4428 93.2469L28.2106 91.6032Z" fill="#ED5B4C"/>
<path d="M49.6592 83.4484L47.0368 87.4888C46.2137 88.7571 45.1978 88.9733 43.9839 88.1854L33.5839 81.4355L34.4306 80.131L44.5588 86.7045C45.1024 87.0573 45.5858 86.9076 46.0091 86.2553L48.2199 82.8491C48.5021 82.4142 48.5209 81.9886 48.2942 81.584C48.0005 81.0843 46.838 80.0981 44.777 78.6317L45.9933 77.6701C48.3815 79.4261 49.7207 80.6558 50.0173 81.389C50.2468 82.0273 50.1296 82.7237 49.6592 83.4484ZM33.7822 85.3753L34.8473 84.2898C37.6344 86.8197 39.8455 89.2849 41.4807 91.6852L40.045 92.3499C38.3555 89.9143 36.254 87.5976 33.7822 85.3753ZM40.7936 73.3425C43.9016 73.7117 47.0487 74.338 50.2766 75.1969L50.044 76.7455C46.5517 75.8179 43.3267 75.1926 40.3872 74.8813L40.7936 73.3425ZM31.469 76.5608C34.3083 76.0345 36.6833 75.7477 38.5821 75.7183L38.6194 77.2876C36.5947 77.3125 34.1953 77.5577 31.4338 78.083L31.469 76.5608Z" fill="#ED5B4C"/>
<path d="M54.8983 74.9547L55.7962 75.7651L54.7976 76.8715L49.2497 71.8639L53.4758 67.1819L58.8954 72.0737L57.8823 73.1961L57.1126 72.5014L54.8983 74.9547ZM56.0544 71.5462L53.5049 69.245L51.2906 71.6983L53.84 73.9995L56.0544 71.5462ZM41.8582 66.0942L44.087 63.625C43.2431 63.2705 42.3717 62.9787 41.5195 62.7623L42.199 61.397C43.1939 61.7131 44.0829 62.05 44.8338 62.3786L44.5357 63.1279L47.0395 60.354L48.1138 61.3237L42.9325 67.0639L41.8582 66.0942ZM44.7637 67.5819L48.7582 63.1565L49.7844 64.0827L45.7899 68.5082L44.7637 67.5819ZM46.9764 69.5792L50.9709 65.1537L52.0131 66.0945L48.0186 70.5199L46.9764 69.5792ZM49.9866 59.6679C50.7519 61.1733 51.3486 62.6721 51.7896 64.1178L50.328 64.5443C49.5002 61.8186 48.2356 59.2222 46.5036 56.7568L47.7123 55.8691C48.2586 56.6823 48.7583 57.4826 49.226 58.2539L55.1888 51.6478L56.3112 52.6609L51.8391 57.6155L54.565 60.0759L58.4726 55.7466L59.563 56.7308L55.6553 61.06L58.3811 63.5204L62.5782 58.8705L63.6846 59.8691L59.4875 64.519L63.1112 67.7899L62.0981 68.9123L50.826 58.7379L49.9866 59.6679Z" fill="#ED5B4C"/>
<path d="M71.7756 38.7648L66.035 43.3797L67.7672 45.5345L73.5079 40.9197L71.7756 38.7648ZM68.6063 46.5783L70.4062 48.8173C72.6359 51.6254 74.184 54.344 75.0673 56.9597L73.6773 56.8854C72.93 54.7147 71.5176 52.3027 69.3961 49.6293L64.1723 43.1311L67.7244 40.2756C67.1263 39.8418 66.5688 39.4586 66.0215 39.1225L67.0207 37.9867C67.5782 38.37 68.2034 38.8374 68.8692 39.3553L72.0004 36.8381L75.4244 41.0973L68.6063 46.5783ZM60.7607 49.7813L61.8569 51.1449L63.372 49.9269L62.2758 48.5633L60.7607 49.7813ZM62.6283 52.1045L63.7922 53.5523L65.3073 52.3343L64.1434 50.8865L62.6283 52.1045ZM66.3679 51.4817L68.2702 49.9524C71.2069 53.6056 72.7742 55.8654 72.9752 56.7015C73.1593 57.5512 72.8609 58.3176 72.0529 58.9672C71.834 59.1432 71.5848 59.3158 71.3356 59.4884L70.3285 58.7183C70.6249 58.5354 70.8741 58.3628 71.1098 58.1733C71.8 57.6185 71.8895 56.9368 71.4221 56.1486C70.9716 55.3468 69.8886 53.8617 68.1563 51.7069L63.5772 55.3879L56.9324 47.1221L62.5384 42.6155L63.3639 43.6424L61.3605 45.2528L62.5515 46.7343L64.2013 45.408L64.9862 46.3845L63.3364 47.7107L64.4326 49.0743L66.0824 47.7481L66.8538 48.7077L65.204 50.0339L66.3679 51.4817ZM60.3 46.1054L58.7848 47.3234L59.9758 48.8049L61.4909 47.5869L60.3 46.1054ZM65.8367 55.0958C66.8104 56.0313 68.0347 57.3474 69.4894 59.088L68.9038 59.6696C67.4221 57.8953 66.2483 56.5387 65.3521 55.5962L65.8367 55.0958ZM67.8559 53.0569C68.9778 53.901 69.9513 54.6982 70.8065 55.4518L70.4335 56.0565C69.4667 55.1986 68.4629 54.3981 67.4558 53.628L67.8559 53.0569ZM66.9273 54.1082C67.9684 54.9896 69.03 55.9653 70.1727 57.0421L69.6413 57.6911C68.4949 56.5064 67.4366 55.5002 66.4834 54.6591L66.9273 54.1082ZM64.0753 56.3178L64.7827 55.8877C66.1499 57.7263 67.2402 59.4273 68.1142 60.9972L67.2616 61.35C66.4618 59.8036 65.4155 58.1227 64.0753 56.3178ZM82.1402 50.8304L81.5173 51.3311L80.561 50.6587L81.1773 50.2187C81.4298 50.0157 81.4698 49.7896 81.3074 49.5876L79.3992 47.2139L78.2544 48.1342L80.934 51.4674L80.1933 52.0629L77.5137 48.7296L76.3858 49.6364L79.0654 52.9696L78.3078 53.5786L75.6282 50.2454L74.5003 51.1521L77.437 54.8052L76.5616 55.509L70.3227 47.7481L76.9893 42.389L82.362 49.0723C82.8763 49.7121 82.7967 50.3026 82.1402 50.8304ZM73.7424 50.2093L74.8703 49.3026L73.1381 47.1478L72.0101 48.0545L73.7424 50.2093ZM73.8956 46.5388L75.6279 48.6936L76.7558 47.7869L75.0236 45.632L73.8956 46.5388ZM75.7643 45.0366L77.4966 47.1914L78.6413 46.2712L76.9091 44.1163L75.7643 45.0366Z" fill="#ED5B4C"/>
<path d="M86.269 35.2824C86.6805 35.0448 87.1145 35.0188 87.5815 35.223C88.0191 35.4193 88.3984 35.774 88.7116 36.3165C89.1868 37.1395 89.3648 38.0095 89.2456 38.9263C89.1049 39.8057 88.6877 40.5952 88.0209 41.2546L87.4917 40.3379C87.8809 39.8888 88.1117 39.3814 88.2137 38.8237C88.2488 38.2797 88.1422 37.7925 87.883 37.3436C87.8297 37.4242 87.7017 37.548 87.5146 37.656C87.1966 37.8396 86.8699 37.8785 86.5159 37.7837C86.1618 37.6888 85.9063 37.4622 85.7227 37.1442C85.5175 36.7888 85.4677 36.4434 85.5734 36.108C85.6496 35.7647 85.8949 35.4984 86.269 35.2824Z" fill="#ED5B4C"/>
<path d="M98.2308 25.4764L98.9599 27.3714L103.395 25.6651L102.666 23.7701L98.2308 25.4764ZM102.216 22.6008L101.495 20.726L97.0597 22.4323L97.781 24.3071L102.216 22.6008ZM107.282 21.9939L108.019 23.9091L112.434 22.2105L111.697 20.2954L107.282 21.9939ZM111.248 19.1261L110.534 17.2715L106.119 18.97L106.833 20.8247L111.248 19.1261ZM112.9 23.4201L107.033 25.6771L104.202 18.3189L111.5 15.5112L117.557 31.2557C118.054 32.5459 117.725 33.4361 116.576 33.8782C115.81 34.173 115.016 34.4553 114.242 34.7299L113.38 33.511C114.161 33.2566 114.875 33.0053 115.54 32.7494C116.084 32.5399 116.227 32.0685 115.948 31.3428L112.9 23.4201ZM102.489 18.9782L105.312 26.3162L99.4253 28.581L103.427 38.9832L101.976 39.5417L95.1506 21.8013L102.489 18.9782Z" fill="#ED5B4C"/>
<path d="M116.81 14.0632L122.873 12.7693L124.081 18.4307L118.018 19.7245L116.81 14.0632ZM122.39 17.4441L121.732 14.36L118.479 15.0542L119.137 18.1384L122.39 17.4441ZM117.551 21.2599L124.944 19.682L125.242 21.0762L121.165 21.9463C121.147 22.8997 121.112 23.7687 121.058 24.5531L124.903 23.7326C125.692 27.7386 125.815 30.0756 125.289 30.7178C124.877 31.2696 123.828 31.7364 122.117 32.1015L121.779 32.1737L121.08 30.8651C121.359 30.8276 121.617 30.7947 121.85 30.7451C122.986 30.4805 123.673 30.1794 123.935 29.8583C124.269 29.4557 124.195 27.9697 123.713 25.4001L119.53 26.2927C119.651 24.7872 119.697 23.4522 119.686 22.2619L117.848 22.6541L117.551 21.2599ZM128.357 10.6272L129.835 10.3116L130.106 11.5791L134.5 10.6414L134.77 11.9089L130.376 12.8466L130.701 14.3675L135.517 13.3397L135.666 14.0368C135.697 15.1124 135.617 16.1895 135.432 17.2891L133.978 17.2019C134.143 16.5262 134.231 15.8006 134.28 14.9951L130.985 15.6983L131.382 17.5573L133.739 16.7009L134.225 17.9444L131.661 18.867L131.891 19.9443C131.972 20.3246 132.229 20.4907 132.693 20.3916L136.327 19.6162L136.606 20.9259L132.593 21.7824C131.431 22.0304 130.748 21.624 130.522 20.5677L130.27 19.3848L128.258 20.1012L127.793 18.8532L129.986 18.0539L129.548 16.0049L126.676 16.618L127.703 21.4343C128.474 25.0466 128.503 28.2871 127.786 31.1348L126.382 30.3521C126.978 27.972 126.941 25.1087 126.276 21.7831L124.955 15.5937L129.222 14.6831L128.357 10.6272ZM129.864 23.0715L131.3 22.7649C132.02 26.344 131.782 28.9567 130.592 30.6242L129.185 29.9306C130.282 28.5481 130.498 26.2491 129.864 23.0715ZM137.236 28.7425L136.328 28.9364C135.103 29.1978 134.377 28.8005 134.152 27.7442L133.016 22.4209L134.389 22.1279L135.471 27.1977C135.534 27.4935 135.735 27.6053 136.073 27.5331L136.854 27.3663C137.213 27.2897 137.379 27.0334 137.357 26.6185C137.321 26.1402 137.201 25.3707 136.985 24.3568L138.373 24.5465C138.733 26.2365 138.832 27.3197 138.669 27.7963C138.513 28.205 138.03 28.529 137.236 28.7425Z" fill="#ED5B4C"/>
<path d="M156.114 19.3541L156.564 27.5498L155.075 27.6315L155.01 26.4453L145.887 26.9458L145.957 28.2183L144.469 28.3L144.08 21.2042C142.827 22.4195 141.369 23.4513 139.708 24.3212L138.925 23.0662C141.953 21.4724 144.177 19.425 145.597 16.9243L139.299 17.2698L139.222 15.8679L146.296 15.4798C146.68 14.5934 146.953 13.6483 147.16 12.6851L148.614 12.7783C148.405 13.6984 148.149 14.5561 147.849 15.3946L157.965 14.8396L158.041 16.2415L147.236 16.8343C146.671 17.9686 146.014 18.9998 145.244 19.9506L156.114 19.3541ZM145.808 25.5008L154.931 25.0002L154.704 20.8593L145.581 21.3598L145.808 25.5008ZM138.852 10.6964L143.532 10.4396L143.427 8.52014L144.915 8.43848L145.02 10.358L147.652 10.2136L147.73 11.6371L145.098 11.7815L145.217 13.9382L143.729 14.0199L143.61 11.8631L138.93 12.1199L138.852 10.6964ZM151.191 8.09412L152.679 8.01247L152.785 9.93198L157.465 9.67519L157.543 11.0987L152.863 11.3554L152.981 13.5122L151.493 13.5939L151.375 11.4371L148.722 11.5826L148.644 10.1592L151.297 10.0136L151.191 8.09412Z" fill="#ED5B4C"/>
<path d="M173.024 9.0548L174.593 9.21757L174.24 12.6121L180.235 13.2342L180.081 14.7167L174.087 14.0946L173.741 17.4247L179.263 17.9977L179.106 19.5017L173.585 18.9286L173.23 22.3447L179.568 23.0024L179.415 24.4849L173.077 23.8271L172.55 28.8975L170.982 28.7347L173.024 9.0548ZM161.693 11.31L167.709 11.9343L168.061 8.53972L169.587 8.69804L168.501 19.161C168.021 23.3676 166.499 26.315 163.935 28.0033L162.863 26.828C164.397 25.8579 165.505 24.3876 166.204 22.4623C164.35 22.7477 162.398 22.936 160.343 23.0701L160.138 21.4853C162.378 21.4572 164.543 21.3127 166.637 21.0089C166.79 20.3733 166.904 19.6902 166.976 19.0027L167.054 18.2508L161.532 17.6777L161.688 16.1738L167.21 16.7468L167.555 13.4167L161.54 12.7924L161.693 11.31Z" fill="#ED5B4C"/>
<path d="M192.729 25.0984L191.059 24.6536L191.119 23.1717C191.624 23.3734 192.114 23.5486 192.573 23.6709C192.949 23.771 193.23 23.5553 193.369 23.0335L194.781 17.732L196.284 18.1323L194.777 23.7887C194.471 24.9366 193.773 25.3764 192.729 25.0984ZM185.767 16.8283C184.973 17.3767 184.175 17.8569 183.372 18.269L182.738 16.8708C185.051 15.7432 187.168 14.0049 189.085 11.6767L190.462 12.379C189.597 13.445 188.692 14.4108 187.751 15.2556L185.627 23.2287L184.166 22.8395L185.767 16.8283ZM193.786 12.9069L195.122 13.5981C194.722 14.0949 194.306 14.5653 193.922 14.9995L202.292 17.2293L202.041 18.1685C201.492 19.1399 200.886 20.0736 200.201 20.9643L198.939 20.248C199.477 19.6538 199.97 18.9802 200.422 18.2065L192.72 16.1546C191.604 17.1539 190.408 17.9529 189.161 18.6043L188.543 17.2326C190.476 16.2721 192.222 14.8371 193.786 12.9069ZM183.528 23.8094L184.89 24.4853C183.855 26.3555 182.699 27.9253 181.407 29.1681L180.351 28.0149C181.605 26.8291 182.654 25.4097 183.528 23.8094ZM192.162 32.6816L186.819 31.2581C185.525 30.9133 185.076 30.0786 185.432 28.7428L186.605 24.3388L188.129 24.7447L187.039 28.8356C186.884 29.42 187.071 29.8054 187.656 29.9611L192.248 31.1844C192.665 31.2956 192.991 31.2483 193.245 31.0478C193.574 30.8224 193.942 30.0264 194.393 28.6711L195.69 29.5084C195.054 31.3062 194.488 32.3401 193.965 32.6255C193.521 32.8649 192.913 32.8817 192.162 32.6816ZM197.517 26.8435C198.364 29.0361 198.937 30.9101 199.28 32.4767L197.815 33.0253C197.464 31.3223 196.881 29.401 196.086 27.2668L197.517 26.8435ZM191.555 19.0184L192.615 19.9044C191.394 21.3003 190.103 22.454 188.748 23.3448L187.811 22.2459C189.155 21.3968 190.403 20.321 191.555 19.0184ZM198.49 20.8436C199.158 22.3628 199.662 23.9948 200.023 25.7451L198.577 26.0529C198.218 24.2136 197.699 22.5552 197.072 21.0471L198.49 20.8436ZM191.097 24.9318C191.824 26.3996 192.339 27.6545 192.642 28.6965L191.257 29.1992C190.928 28.0834 190.424 26.7867 189.734 25.351L191.097 24.9318Z" fill="#ED5B4C"/>
<path d="M206.368 20.7791L214.085 24.2114L215.674 20.6392L217.134 21.2888L215.545 24.861L223.242 28.2844L222.636 29.6462L216.203 26.7845C216.129 30.5107 217.251 34.3665 219.548 38.3434L218.037 39.1369C215.827 34.7499 214.851 30.4621 215.097 26.293L214.939 26.2227L211.516 33.9197L215.739 35.7982L215.134 37.16L210.91 35.2815L209.111 39.3273L207.65 38.6778L209.45 34.6319L205.384 32.8236L205.99 31.4618L210.056 33.2701L213.479 25.5732L213.341 25.5117C210.098 28.8685 206.146 31.0583 201.483 32.0812L201.262 30.399C205.561 29.6633 209.202 27.855 212.216 25.0114L205.762 22.1409L206.368 20.7791Z" fill="#ED5B4C"/>
<path d="M237.557 32.469C236.546 34.0272 235.622 35.3327 234.82 36.409C232.636 41.9957 232.817 47.4694 235.357 52.8003L233.765 53.3891C231.645 48.5623 231.261 43.6782 232.632 38.7485C228.981 41.9927 224.292 43.5842 218.588 43.5646L218.543 41.8876C225.513 42.0594 230.779 39.5801 234.329 34.4679C235.147 33.2476 235.788 32.2991 236.235 31.6106L237.557 32.469Z" fill="#ED5B4C"/>
<path d="M249.857 52.4788C250.21 52.7973 250.368 53.2021 250.318 53.7093C250.266 54.1861 250.045 54.6562 249.625 55.1212C248.988 55.8267 248.215 56.2639 247.307 56.4328C246.426 56.5696 245.547 56.4158 244.714 55.9843L245.423 55.1986C245.971 55.4306 246.524 55.494 247.086 55.4194C247.615 55.2853 248.045 55.0338 248.393 54.649C248.3 54.6232 248.143 54.5395 247.982 54.3947C247.71 54.1487 247.572 53.8499 247.553 53.4838C247.534 53.1177 247.671 52.8048 247.917 52.5322C248.192 52.2276 248.506 52.0739 248.857 52.0712C249.207 52.038 249.536 52.1894 249.857 52.4788Z" fill="#ED5B4C"/>
<path d="M270.295 66.374L267.671 63.1345L268.829 62.1964L275.872 70.891C269.98 75.6629 266.27 78.5291 264.754 79.5065C262.627 80.8957 260.889 80.7746 259.53 79.0961C259.244 78.7437 258.772 78.1258 258.112 77.2426L258.992 76.0296C259.57 76.8121 260.067 77.4939 260.502 78.031C261.345 79.0717 262.609 79.0202 264.306 77.9237C265.395 77.2087 268.538 74.7743 273.735 70.6206L271.26 67.5657L269.548 68.9524C264.24 73.1406 258.969 74.4914 253.748 73.0218L253.822 71.2942C258.743 72.8398 263.658 71.6665 268.583 67.7607L270.295 66.374ZM253.724 67.8438L254.613 66.5397C255.029 66.6754 255.453 66.5818 255.856 66.2555L261.546 61.6468L259.888 59.599L261.046 58.6609L262.704 60.7087L266.582 57.5682L267.588 58.8103L263.71 61.9508L266.253 65.0896L265.094 66.0276L262.552 62.8888L256.594 67.7151C257.751 68.3895 258.959 69.0232 260.218 69.6161L259.375 70.7715C257.657 70.1612 255.763 69.1943 253.724 67.8438Z" fill="#ED5B4C"/>
<path d="M282.33 78.3012L282.867 79.8366C281.684 80.1205 280.522 80.2677 279.391 80.2968L285.666 91.1652C279.549 94.6967 275.716 96.7847 274.187 97.4184C272.243 98.2414 270.7 97.6857 269.576 95.7402C269.274 95.2164 268.785 94.3264 268.11 93.0702L269.142 92.0502C269.72 93.1381 270.223 94.095 270.676 94.8807C271.378 96.0966 272.481 96.4078 273.965 95.8252C275.059 95.3435 278.263 93.5932 283.598 90.5635L282.161 88.0756C278.577 89.2971 275.514 89.8679 272.982 89.7586C270.24 89.5457 267.315 88.5406 264.218 86.7619L264.815 85.2455C267.683 86.9314 270.375 87.9215 272.83 88.2C275.28 88.382 278.155 87.9192 281.416 86.7848L279.839 84.0537C275.129 85.2266 270.918 84.7148 267.184 82.4808L267.732 80.9674C271.131 83.0956 274.922 83.7004 279.105 82.7817L277.647 80.2563C275.964 80.1057 274.371 79.6787 272.838 78.9675L273.415 77.4619C276.272 78.7808 279.231 79.0678 282.33 78.3012Z" fill="#ED5B4C"/>
<path d="M292.859 113.359L291.553 114.116L288.147 107.789C286.903 108.406 285.856 108.994 285.007 109.552C283.096 110.843 281.739 112.129 280.904 113.445C280.117 114.65 279.86 115.606 280.104 116.299C280.333 116.835 281.779 116.742 284.427 116.047L284.19 117.596C282.436 117.97 281.075 118.101 280.098 117.967C279.373 117.83 278.893 117.482 278.663 116.946C278.283 115.958 278.533 114.681 279.399 113.145C280.368 111.453 281.877 109.9 283.918 108.467C284.825 107.817 285.977 107.142 287.415 106.427L285.167 102.27L286.473 101.513L288.779 105.763C290.418 104.971 292.343 104.138 294.553 103.264L295.127 104.756C292.969 105.586 291.098 106.376 289.511 107.125L292.859 113.359ZM284.737 99.2877C283.546 98.9591 282.385 98.5265 281.228 98.0459L282.561 97.0005C285.854 98.2796 289.269 98.7941 292.801 98.5921L292.676 100.191C290.942 100.256 289.242 100.17 287.589 99.9031L273.961 105.146L273.387 103.654L284.737 99.2877ZM295.831 107.008C295.276 108.633 294.651 110.077 293.969 111.312L292.593 110.684C293.302 109.578 293.954 108.146 294.567 106.43L295.831 107.008Z" fill="#ED5B4C"/>
<path d="M300.058 119.842L299.69 121.403C298.111 121.26 296.611 120.967 295.156 120.575L280.401 123.781L280.071 122.261L292.314 119.601C291.03 119.085 289.786 118.448 288.567 117.719L290.049 116.91C293.131 118.584 296.461 119.562 300.058 119.842ZM295.691 122.736L297.448 130.82L301.986 129.834L302.316 131.354L297.778 132.34L298.438 135.379L296.96 135.7L296.3 132.661L285.282 135.054C283.847 135.366 282.982 134.847 282.698 133.538L282.033 130.477L283.458 129.814C283.61 130.82 283.775 131.779 283.976 132.708C284.119 133.362 284.572 133.617 285.332 133.452L295.97 131.141L294.214 123.057L295.691 122.736ZM292.335 125.498C290.784 127.515 289.387 129.123 288.161 130.296L286.973 129.205C288.317 127.963 289.761 126.367 291.304 124.418L292.335 125.498Z" fill="#ED5B4C"/>
<path d="M301.607 138.654L301.858 143.227L303.821 143.119L303.901 144.586L301.939 144.693L302.156 148.662L300.776 148.738L300.558 144.769L298.66 144.873L298.851 148.346L297.514 148.419L297.033 139.663L298.37 139.589L298.58 143.407L300.478 143.302L300.227 138.73L301.607 138.654ZM295.368 140.468L295.773 147.844L294.414 147.918L294.01 140.542L295.368 140.468ZM292.298 139.317L292.852 149.41L291.493 149.485L291.262 145.258L285.87 145.553C284.748 145.615 284.133 145.043 284.066 143.835L283.966 142.002L285.351 141.623C285.317 142.187 285.305 142.751 285.333 143.268C285.364 143.829 285.638 144.095 286.134 144.068L291.181 143.791L290.94 139.391L292.298 139.317ZM289.993 141.066L289.825 142.329C288.116 141.947 286.635 141.358 285.358 140.563L286.049 139.357C287.262 140.177 288.57 140.754 289.993 141.066ZM290.535 147.785C289.571 148.357 288.54 148.89 287.42 149.362L286.814 148.184C288.042 147.684 289.136 147.126 290.057 146.557L290.535 147.785ZM304.173 150.714L304.014 152.151C302.885 152.083 301.862 151.966 300.902 151.824L301.215 157.518L300.266 157.57C298.417 157.39 296.585 157.123 294.769 156.747L295.1 155.279C296.46 155.637 297.99 155.921 299.731 156.107L299.481 151.556C297.642 151.159 296.14 150.593 294.975 149.856L295.751 148.624C297.808 149.831 300.614 150.52 304.173 150.714ZM297.825 152.512L297.903 153.936C296.458 154.015 295.116 154.002 293.901 153.939C290.546 155.075 287.917 156.841 286.036 159.238L284.793 158.267C286.503 156.313 288.625 154.769 291.202 153.633C291.049 153.598 290.896 153.584 290.721 153.551C288.14 153.022 285.987 151.626 284.217 149.343L285.308 148.332C286.844 150.302 288.687 151.564 290.881 152.114C292.721 152.533 295.021 152.666 297.825 152.512Z" fill="#ED5B4C"/>
<path d="M301.401 170.322L301.193 172.32L290.014 170.812L290.152 169.48L301.401 170.322ZM288.515 169.983C288.477 170.348 288.336 170.659 288.051 170.891C287.791 171.102 287.476 171.2 287.111 171.162C286.724 171.122 286.437 170.962 286.225 170.701C286.016 170.419 285.92 170.083 285.958 169.718C285.996 169.353 286.156 169.065 286.419 168.832C286.704 168.601 287.016 168.525 287.381 168.562C287.746 168.6 288.036 168.739 288.245 169.021C288.477 169.306 288.553 169.618 288.515 169.983Z" fill="#ED5B4C"/>
</g>
</svg>
